<?xml version="1.0" encoding="UTF-8" standalone="no"?><svg xmlns="http://www.w3.org/2000/svg" xmlns:xlink="http://www.w3.org/1999/xlink" contentScriptType="application/ecmascript" contentStyleType="text/css" height="781px" preserveAspectRatio="none" style="width:2540px;height:781px;" version="1.1" viewBox="0 0 2540 781" width="2540px" zoomAndPan="magnify"><defs><filter height="300%" id="f1g9o7ny6nnzys" width="300%" x="-1" y="-1"><feGaussianBlur result="blurOut" stdDeviation="2.0"/><feColorMatrix in="blurOut" result="blurOut2" type="matrix" values="0 0 0 0 0 0 0 0 0 0 0 0 0 0 0 0 0 0 .4 0"/><feOffset dx="4.0" dy="4.0" in="blurOut2" result="blurOut3"/><feBlend in="SourceGraphic" in2="blurOut3" mode="normal"/></filter></defs><g><!--MD5=[5ef22bbd0a1f67a50f73f5041020c54e]
cluster mongoose--><polygon fill="#FFFFFF" filter="url(#f1g9o7ny6nnzys)" points="723,24,812,24,819,46.2969,851,46.2969,851,123,723,123,723,24" style="stroke: #000000; stroke-width: 1.5;"/><line style="stroke: #000000; stroke-width: 1.5;" x1="723" x2="819" y1="46.2969" y2="46.2969"/><text fill="#000000" font-family="sans-serif" font-size="14" font-weight="bold" lengthAdjust="spacingAndGlyphs" textLength="83" x="727" y="38.9951">mongoose</text><!--MD5=[a49c2c941ba6021873bafec9daf0cd06]
cluster express--><polygon fill="#FFFFFF" filter="url(#f1g9o7ny6nnzys)" points="2412,254,2482,254,2489,276.2969,2518,276.2969,2518,353,2412,353,2412,254" style="stroke: #000000; stroke-width: 1.5;"/><line style="stroke: #000000; stroke-width: 1.5;" x1="2412" x2="2489" y1="276.2969" y2="276.2969"/><text fill="#000000" font-family="sans-serif" font-size="14" font-weight="bold" lengthAdjust="spacingAndGlyphs" textLength="64" x="2416" y="268.9951">express</text><!--MD5=[081a5e829efc359158a0e8a52aaa6274]
class mongoose.Document--><rect fill="#FEFECE" filter="url(#f1g9o7ny6nnzys)" height="48" id="mongoose.Document" style="stroke: #A80036; stroke-width: 1.5;" width="96" x="739" y="59"/><ellipse cx="754" cy="75" fill="#ADD1B2" rx="11" ry="11" style="stroke: #A80036; stroke-width: 1.0;"/><path d="M756.3438,70.6719 L756.5156,70.75 C756.7344,70.4375 756.9375,70.3438 757.2344,70.3438 C757.5313,70.3438 757.8125,70.4844 757.9688,70.75 C758.0625,70.9063 758.0781,71.0313 758.0781,71.4688 L758.0781,72.8906 C758.0781,73.3125 758.0469,73.5 757.9375,73.6563 C757.7656,73.875 757.5,74.0156 757.2344,74.0156 C757.0156,74.0156 756.7813,73.9063 756.6406,73.7656 C756.5,73.6406 756.4688,73.5156 756.4063,73.1094 C756.3125,72.7031 756.1406,72.4844 755.6563,72.2031 C755.1875,71.9531 754.5781,71.7969 754,71.7969 C752.2656,71.7969 751.0156,73.1094 751.0156,74.8906 L751.0156,75.9844 C751.0156,77.6875 752.3125,78.7813 754.3594,78.7813 C755.125,78.7813 755.8125,78.6563 756.2344,78.3906 C756.4219,78.2969 756.4219,78.2969 756.875,77.8125 C757.0625,77.625 757.2656,77.5469 757.4844,77.5469 C757.9531,77.5469 758.3438,77.9375 758.3438,78.3906 C758.3438,78.7813 758.0156,79.2344 757.4375,79.6406 C756.6875,80.1875 755.5313,80.4844 754.3125,80.4844 C751.4219,80.4844 749.3125,78.5938 749.3125,76.0156 L749.3125,74.8906 C749.3125,72.1719 751.3125,70.0938 753.9375,70.0938 C754.8125,70.0938 755.4063,70.2344 756.3438,70.6719 Z "/><text fill="#000000" font-family="sans-serif" font-size="12" lengthAdjust="spacingAndGlyphs" textLength="64" x="768" y="79.1543">Document</text><line style="stroke: #A80036; stroke-width: 1.5;" x1="740" x2="834" y1="91" y2="91"/><line style="stroke: #A80036; stroke-width: 1.5;" x1="740" x2="834" y1="99" y2="99"/><!--MD5=[974b0fac639f7bff14773e1e7374a55d]
class express.Router--><rect fill="#FEFECE" filter="url(#f1g9o7ny6nnzys)" height="48" id="express.Router" style="stroke: #A80036; stroke-width: 1.5;" width="74" x="2428" y="289"/><ellipse cx="2443" cy="305" fill="#ADD1B2" rx="11" ry="11" style="stroke: #A80036; stroke-width: 1.0;"/><path d="M2445.3438,300.6719 L2445.5156,300.75 C2445.7344,300.4375 2445.9375,300.3438 2446.2344,300.3438 C2446.5313,300.3438 2446.8125,300.4844 2446.9688,300.75 C2447.0625,300.9063 2447.0781,301.0313 2447.0781,301.4688 L2447.0781,302.8906 C2447.0781,303.3125 2447.0469,303.5 2446.9375,303.6563 C2446.7656,303.875 2446.5,304.0156 2446.2344,304.0156 C2446.0156,304.0156 2445.7813,303.9063 2445.6406,303.7656 C2445.5,303.6406 2445.4688,303.5156 2445.4063,303.1094 C2445.3125,302.7031 2445.1406,302.4844 2444.6563,302.2031 C2444.1875,301.9531 2443.5781,301.7969 2443,301.7969 C2441.2656,301.7969 2440.0156,303.1094 2440.0156,304.8906 L2440.0156,305.9844 C2440.0156,307.6875 2441.3125,308.7813 2443.3594,308.7813 C2444.125,308.7813 2444.8125,308.6563 2445.2344,308.3906 C2445.4219,308.2969 2445.4219,308.2969 2445.875,307.8125 C2446.0625,307.625 2446.2656,307.5469 2446.4844,307.5469 C2446.9531,307.5469 2447.3438,307.9375 2447.3438,308.3906 C2447.3438,308.7813 2447.0156,309.2344 2446.4375,309.6406 C2445.6875,310.1875 2444.5313,310.4844 2443.3125,310.4844 C2440.4219,310.4844 2438.3125,308.5938 2438.3125,306.0156 L2438.3125,304.8906 C2438.3125,302.1719 2440.3125,300.0938 2442.9375,300.0938 C2443.8125,300.0938 2444.4063,300.2344 2445.3438,300.6719 Z "/><text fill="#000000" font-family="sans-serif" font-size="12" lengthAdjust="spacingAndGlyphs" textLength="42" x="2457" y="309.1543">Router</text><line style="stroke: #A80036; stroke-width: 1.5;" x1="2429" x2="2501" y1="321" y2="321"/><line style="stroke: #A80036; stroke-width: 1.5;" x1="2429" x2="2501" y1="329" y2="329"/><!--MD5=[063d74e43144aaa0d0cf3aecd3794497]
class Log--><rect fill="#FEFECE" filter="url(#f1g9o7ny6nnzys)" height="112.0234" id="Log" style="stroke: #A80036; stroke-width: 1.5;" width="188" x="61" y="27"/><ellipse cx="139.75" cy="43" fill="#ADD1B2" rx="11" ry="11" style="stroke: #A80036; stroke-width: 1.0;"/><path d="M142.0938,38.6719 L142.2656,38.75 C142.4844,38.4375 142.6875,38.3438 142.9844,38.3438 C143.2813,38.3438 143.5625,38.4844 143.7188,38.75 C143.8125,38.9063 143.8281,39.0313 143.8281,39.4688 L143.8281,40.8906 C143.8281,41.3125 143.7969,41.5 143.6875,41.6563 C143.5156,41.875 143.25,42.0156 142.9844,42.0156 C142.7656,42.0156 142.5313,41.9063 142.3906,41.7656 C142.25,41.6406 142.2188,41.5156 142.1563,41.1094 C142.0625,40.7031 141.8906,40.4844 141.4063,40.2031 C140.9375,39.9531 140.3281,39.7969 139.75,39.7969 C138.0156,39.7969 136.7656,41.1094 136.7656,42.8906 L136.7656,43.9844 C136.7656,45.6875 138.0625,46.7813 140.1094,46.7813 C140.875,46.7813 141.5625,46.6563 141.9844,46.3906 C142.1719,46.2969 142.1719,46.2969 142.625,45.8125 C142.8125,45.625 143.0156,45.5469 143.2344,45.5469 C143.7031,45.5469 144.0938,45.9375 144.0938,46.3906 C144.0938,46.7813 143.7656,47.2344 143.1875,47.6406 C142.4375,48.1875 141.2813,48.4844 140.0625,48.4844 C137.1719,48.4844 135.0625,46.5938 135.0625,44.0156 L135.0625,42.8906 C135.0625,40.1719 137.0625,38.0938 139.6875,38.0938 C140.5625,38.0938 141.1563,38.2344 142.0938,38.6719 Z "/><text fill="#000000" font-family="sans-serif" font-size="12" lengthAdjust="spacingAndGlyphs" textLength="22" x="160.25" y="47.1543">Log</text><line style="stroke: #A80036; stroke-width: 1.5;" x1="62" x2="248" y1="59" y2="59"/><rect fill="none" height="6" style="stroke: #C82930; stroke-width: 1.0;" width="6" x="69" y="67"/><text fill="#000000" font-family="sans-serif" font-size="11" lengthAdjust="spacingAndGlyphs" textLength="74" x="81" y="73.2104">module : any</text><rect fill="none" height="6" style="stroke: #C82930; stroke-width: 1.0;" width="6" x="69" y="79.8047"/><text fill="#000000" font-family="sans-serif" font-size="11" lengthAdjust="spacingAndGlyphs" textLength="134" x="81" y="86.0151">maxModuleLength : any</text><line style="stroke: #A80036; stroke-width: 1.5;" x1="62" x2="248" y1="92.6094" y2="92.6094"/><ellipse cx="72" cy="103.6094" fill="#84BE84" rx="3" ry="3" style="stroke: #038048; stroke-width: 1.0;"/><text fill="#000000" font-family="sans-serif" font-size="11" lengthAdjust="spacingAndGlyphs" textLength="154" x="81" y="106.8198">info(message: string): void</text><ellipse cx="72" cy="116.4141" fill="#84BE84" rx="3" ry="3" style="stroke: #038048; stroke-width: 1.0;"/><text fill="#000000" font-family="sans-serif" font-size="11" lengthAdjust="spacingAndGlyphs" textLength="161" x="81" y="119.6245">warn(message: string): void</text><ellipse cx="72" cy="129.2188" fill="#84BE84" rx="3" ry="3" style="stroke: #038048; stroke-width: 1.0;"/><text fill="#000000" font-family="sans-serif" font-size="11" lengthAdjust="spacingAndGlyphs" textLength="162" x="81" y="132.4292">error(message: string): void</text><!--MD5=[cb1d040eb22e4c6da29ba1b4ad49b9c0]
class ConfigHolder--><rect fill="#FEFECE" filter="url(#f1g9o7ny6nnzys)" height="137.6328" id="ConfigHolder" style="stroke: #A80036; stroke-width: 1.5;" width="158" x="284" y="14"/><ellipse cx="319.7" cy="30" fill="#ADD1B2" rx="11" ry="11" style="stroke: #A80036; stroke-width: 1.0;"/><path d="M322.0438,25.6719 L322.2156,25.75 C322.4344,25.4375 322.6375,25.3438 322.9344,25.3438 C323.2313,25.3438 323.5125,25.4844 323.6688,25.75 C323.7625,25.9063 323.7781,26.0313 323.7781,26.4688 L323.7781,27.8906 C323.7781,28.3125 323.7469,28.5 323.6375,28.6563 C323.4656,28.875 323.2,29.0156 322.9344,29.0156 C322.7156,29.0156 322.4813,28.9063 322.3406,28.7656 C322.2,28.6406 322.1688,28.5156 322.1063,28.1094 C322.0125,27.7031 321.8406,27.4844 321.3563,27.2031 C320.8875,26.9531 320.2781,26.7969 319.7,26.7969 C317.9656,26.7969 316.7156,28.1094 316.7156,29.8906 L316.7156,30.9844 C316.7156,32.6875 318.0125,33.7813 320.0594,33.7813 C320.825,33.7813 321.5125,33.6563 321.9344,33.3906 C322.1219,33.2969 322.1219,33.2969 322.575,32.8125 C322.7625,32.625 322.9656,32.5469 323.1844,32.5469 C323.6531,32.5469 324.0438,32.9375 324.0438,33.3906 C324.0438,33.7813 323.7156,34.2344 323.1375,34.6406 C322.3875,35.1875 321.2313,35.4844 320.0125,35.4844 C317.1219,35.4844 315.0125,33.5938 315.0125,31.0156 L315.0125,29.8906 C315.0125,27.1719 317.0125,25.0938 319.6375,25.0938 C320.5125,25.0938 321.1063,25.2344 322.0438,25.6719 Z "/><text fill="#000000" font-family="sans-serif" font-size="12" lengthAdjust="spacingAndGlyphs" textLength="80" x="338.3" y="34.1543">ConfigHolder</text><line style="stroke: #A80036; stroke-width: 1.5;" x1="285" x2="441" y1="46" y2="46"/><ellipse cx="295" cy="57" fill="none" rx="3" ry="3" style="stroke: #038048; stroke-width: 1.0;"/><text fill="#000000" font-family="sans-serif" font-size="11" lengthAdjust="spacingAndGlyphs" textLength="85" x="304" y="60.2104">dbHost : string</text><ellipse cx="295" cy="69.8047" fill="none" rx="3" ry="3" style="stroke: #038048; stroke-width: 1.0;"/><text fill="#000000" font-family="sans-serif" font-size="11" lengthAdjust="spacingAndGlyphs" textLength="86" x="304" y="73.0151">dbUser : string</text><ellipse cx="295" cy="82.6094" fill="none" rx="3" ry="3" style="stroke: #038048; stroke-width: 1.0;"/><text fill="#000000" font-family="sans-serif" font-size="11" lengthAdjust="spacingAndGlyphs" textLength="115" x="304" y="85.8198">dbPassword : string</text><ellipse cx="295" cy="95.4141" fill="none" rx="3" ry="3" style="stroke: #038048; stroke-width: 1.0;"/><text fill="#000000" font-family="sans-serif" font-size="11" lengthAdjust="spacingAndGlyphs" textLength="92" x="304" y="98.6245">dbName : string</text><ellipse cx="295" cy="108.2188" fill="none" rx="3" ry="3" style="stroke: #038048; stroke-width: 1.0;"/><text fill="#000000" font-family="sans-serif" font-size="11" lengthAdjust="spacingAndGlyphs" textLength="93" x="304" y="111.4292">dbPort : number</text><ellipse cx="295" cy="121.0234" fill="none" rx="3" ry="3" style="stroke: #038048; stroke-width: 1.0;"/><text fill="#000000" font-family="sans-serif" font-size="11" lengthAdjust="spacingAndGlyphs" textLength="132" x="304" y="124.2339">startBackend : boolean</text><ellipse cx="295" cy="133.8281" fill="none" rx="3" ry="3" style="stroke: #038048; stroke-width: 1.0;"/><text fill="#000000" font-family="sans-serif" font-size="11" lengthAdjust="spacingAndGlyphs" textLength="79" x="304" y="137.0386">port : number</text><line style="stroke: #A80036; stroke-width: 1.5;" x1="285" x2="441" y1="143.6328" y2="143.6328"/><!--MD5=[3fd616f346a44cd59a91eb10b19e157c]
class User--><rect fill="#FEFECE" filter="url(#f1g9o7ny6nnzys)" height="112.0234" id="User" style="stroke: #A80036; stroke-width: 1.5;" width="127" x="535.5" y="257"/><ellipse cx="580.25" cy="273" fill="#ADD1B2" rx="11" ry="11" style="stroke: #A80036; stroke-width: 1.0;"/><path d="M582.5938,268.6719 L582.7656,268.75 C582.9844,268.4375 583.1875,268.3438 583.4844,268.3438 C583.7813,268.3438 584.0625,268.4844 584.2188,268.75 C584.3125,268.9063 584.3281,269.0313 584.3281,269.4688 L584.3281,270.8906 C584.3281,271.3125 584.2969,271.5 584.1875,271.6563 C584.0156,271.875 583.75,272.0156 583.4844,272.0156 C583.2656,272.0156 583.0313,271.9063 582.8906,271.7656 C582.75,271.6406 582.7188,271.5156 582.6563,271.1094 C582.5625,270.7031 582.3906,270.4844 581.9063,270.2031 C581.4375,269.9531 580.8281,269.7969 580.25,269.7969 C578.5156,269.7969 577.2656,271.1094 577.2656,272.8906 L577.2656,273.9844 C577.2656,275.6875 578.5625,276.7813 580.6094,276.7813 C581.375,276.7813 582.0625,276.6563 582.4844,276.3906 C582.6719,276.2969 582.6719,276.2969 583.125,275.8125 C583.3125,275.625 583.5156,275.5469 583.7344,275.5469 C584.2031,275.5469 584.5938,275.9375 584.5938,276.3906 C584.5938,276.7813 584.2656,277.2344 583.6875,277.6406 C582.9375,278.1875 581.7813,278.4844 580.5625,278.4844 C577.6719,278.4844 575.5625,276.5938 575.5625,274.0156 L575.5625,272.8906 C575.5625,270.1719 577.5625,268.0938 580.1875,268.0938 C581.0625,268.0938 581.6563,268.2344 582.5938,268.6719 Z "/><text fill="#000000" font-family="sans-serif" font-size="12" lengthAdjust="spacingAndGlyphs" textLength="29" x="600.75" y="277.1543">User</text><line style="stroke: #A80036; stroke-width: 1.5;" x1="536.5" x2="661.5" y1="289" y2="289"/><ellipse cx="546.5" cy="300" fill="none" rx="3" ry="3" style="stroke: #038048; stroke-width: 1.0;"/><text fill="#000000" font-family="sans-serif" font-size="11" lengthAdjust="spacingAndGlyphs" textLength="61" x="555.5" y="303.2104">_id : string</text><ellipse cx="546.5" cy="312.8047" fill="none" rx="3" ry="3" style="stroke: #038048; stroke-width: 1.0;"/><text fill="#000000" font-family="sans-serif" font-size="11" lengthAdjust="spacingAndGlyphs" textLength="76" x="555.5" y="316.0151">email : string</text><ellipse cx="546.5" cy="325.6094" fill="none" rx="3" ry="3" style="stroke: #038048; stroke-width: 1.0;"/><text fill="#000000" font-family="sans-serif" font-size="11" lengthAdjust="spacingAndGlyphs" textLength="101" x="555.5" y="328.8198">password : string</text><ellipse cx="546.5" cy="338.4141" fill="none" rx="3" ry="3" style="stroke: #038048; stroke-width: 1.0;"/><text fill="#000000" font-family="sans-serif" font-size="11" lengthAdjust="spacingAndGlyphs" textLength="101" x="555.5" y="341.6245">firstName : string</text><ellipse cx="546.5" cy="351.2188" fill="none" rx="3" ry="3" style="stroke: #038048; stroke-width: 1.0;"/><text fill="#000000" font-family="sans-serif" font-size="11" lengthAdjust="spacingAndGlyphs" textLength="99" x="555.5" y="354.4292">lastName : string</text><line style="stroke: #A80036; stroke-width: 1.5;" x1="536.5" x2="661.5" y1="361.0234" y2="361.0234"/><!--MD5=[545507b7baa8aade59e57dce916f0187]
class Subscription--><rect fill="#FEFECE" filter="url(#f1g9o7ny6nnzys)" height="99.2188" id="Subscription" style="stroke: #A80036; stroke-width: 1.5;" width="148" x="598" y="474"/><ellipse cx="630.1" cy="490" fill="#ADD1B2" rx="11" ry="11" style="stroke: #A80036; stroke-width: 1.0;"/><path d="M632.4438,485.6719 L632.6156,485.75 C632.8344,485.4375 633.0375,485.3438 633.3344,485.3438 C633.6313,485.3438 633.9125,485.4844 634.0688,485.75 C634.1625,485.9063 634.1781,486.0313 634.1781,486.4688 L634.1781,487.8906 C634.1781,488.3125 634.1469,488.5 634.0375,488.6563 C633.8656,488.875 633.6,489.0156 633.3344,489.0156 C633.1156,489.0156 632.8813,488.9063 632.7406,488.7656 C632.6,488.6406 632.5688,488.5156 632.5063,488.1094 C632.4125,487.7031 632.2406,487.4844 631.7563,487.2031 C631.2875,486.9531 630.6781,486.7969 630.1,486.7969 C628.3656,486.7969 627.1156,488.1094 627.1156,489.8906 L627.1156,490.9844 C627.1156,492.6875 628.4125,493.7813 630.4594,493.7813 C631.225,493.7813 631.9125,493.6563 632.3344,493.3906 C632.5219,493.2969 632.5219,493.2969 632.975,492.8125 C633.1625,492.625 633.3656,492.5469 633.5844,492.5469 C634.0531,492.5469 634.4438,492.9375 634.4438,493.3906 C634.4438,493.7813 634.1156,494.2344 633.5375,494.6406 C632.7875,495.1875 631.6313,495.4844 630.4125,495.4844 C627.5219,495.4844 625.4125,493.5938 625.4125,491.0156 L625.4125,489.8906 C625.4125,487.1719 627.4125,485.0938 630.0375,485.0938 C630.9125,485.0938 631.5063,485.2344 632.4438,485.6719 Z "/><text fill="#000000" font-family="sans-serif" font-size="12" lengthAdjust="spacingAndGlyphs" textLength="78" x="647.9" y="494.1543">Subscription</text><line style="stroke: #A80036; stroke-width: 1.5;" x1="599" x2="745" y1="506" y2="506"/><ellipse cx="609" cy="517" fill="none" rx="3" ry="3" style="stroke: #038048; stroke-width: 1.0;"/><text fill="#000000" font-family="sans-serif" font-size="11" lengthAdjust="spacingAndGlyphs" textLength="61" x="618" y="520.2104">_id : string</text><ellipse cx="609" cy="529.8047" fill="none" rx="3" ry="3" style="stroke: #038048; stroke-width: 1.0;"/><text fill="#000000" font-family="sans-serif" font-size="11" lengthAdjust="spacingAndGlyphs" textLength="81" x="618" y="533.0151">userId : string</text><ellipse cx="609" cy="542.6094" fill="none" rx="3" ry="3" style="stroke: #038048; stroke-width: 1.0;"/><text fill="#000000" font-family="sans-serif" font-size="11" lengthAdjust="spacingAndGlyphs" textLength="122" x="618" y="545.8198">accountName : string</text><ellipse cx="609" cy="555.4141" fill="none" rx="3" ry="3" style="stroke: #038048; stroke-width: 1.0;"/><text fill="#000000" font-family="sans-serif" font-size="11" lengthAdjust="spacingAndGlyphs" textLength="54" x="618" y="558.6245">app : App</text><line style="stroke: #A80036; stroke-width: 1.5;" x1="599" x2="745" y1="565.2188" y2="565.2188"/><!--MD5=[0aeed08ddef30626048d837b7fbd8ab5]
class SubscribeRequest--><rect fill="#FEFECE" filter="url(#f1g9o7ny6nnzys)" height="112.0234" id="SubscribeRequest" style="stroke: #A80036; stroke-width: 1.5;" width="298" x="6" y="257"/><ellipse cx="93.75" cy="273" fill="#ADD1B2" rx="11" ry="11" style="stroke: #A80036; stroke-width: 1.0;"/><path d="M96.0938,268.6719 L96.2656,268.75 C96.4844,268.4375 96.6875,268.3438 96.9844,268.3438 C97.2813,268.3438 97.5625,268.4844 97.7188,268.75 C97.8125,268.9063 97.8281,269.0313 97.8281,269.4688 L97.8281,270.8906 C97.8281,271.3125 97.7969,271.5 97.6875,271.6563 C97.5156,271.875 97.25,272.0156 96.9844,272.0156 C96.7656,272.0156 96.5313,271.9063 96.3906,271.7656 C96.25,271.6406 96.2188,271.5156 96.1563,271.1094 C96.0625,270.7031 95.8906,270.4844 95.4063,270.2031 C94.9375,269.9531 94.3281,269.7969 93.75,269.7969 C92.0156,269.7969 90.7656,271.1094 90.7656,272.8906 L90.7656,273.9844 C90.7656,275.6875 92.0625,276.7813 94.1094,276.7813 C94.875,276.7813 95.5625,276.6563 95.9844,276.3906 C96.1719,276.2969 96.1719,276.2969 96.625,275.8125 C96.8125,275.625 97.0156,275.5469 97.2344,275.5469 C97.7031,275.5469 98.0938,275.9375 98.0938,276.3906 C98.0938,276.7813 97.7656,277.2344 97.1875,277.6406 C96.4375,278.1875 95.2813,278.4844 94.0625,278.4844 C91.1719,278.4844 89.0625,276.5938 89.0625,274.0156 L89.0625,272.8906 C89.0625,270.1719 91.0625,268.0938 93.6875,268.0938 C94.5625,268.0938 95.1563,268.2344 96.0938,268.6719 Z "/><text fill="#000000" font-family="sans-serif" font-size="12" lengthAdjust="spacingAndGlyphs" textLength="114" x="114.25" y="277.1543">SubscribeRequest</text><line style="stroke: #A80036; stroke-width: 1.5;" x1="7" x2="303" y1="289" y2="289"/><ellipse cx="17" cy="300" fill="none" rx="3" ry="3" style="stroke: #038048; stroke-width: 1.0;"/><text fill="#000000" font-family="sans-serif" font-size="11" lengthAdjust="spacingAndGlyphs" textLength="55" x="26" y="303.2104">id : string</text><ellipse cx="17" cy="312.8047" fill="none" rx="3" ry="3" style="stroke: #038048; stroke-width: 1.0;"/><text fill="#000000" font-family="sans-serif" font-size="11" lengthAdjust="spacingAndGlyphs" textLength="90" x="26" y="316.0151">callback : string</text><ellipse cx="17" cy="325.6094" fill="none" rx="3" ry="3" style="stroke: #038048; stroke-width: 1.0;"/><text fill="#000000" font-family="sans-serif" font-size="11" lengthAdjust="spacingAndGlyphs" textLength="77" x="26" y="328.8198">name : string</text><ellipse cx="17" cy="338.4141" fill="none" rx="3" ry="3" style="stroke: #038048; stroke-width: 1.0;"/><text fill="#000000" font-family="sans-serif" font-size="11" lengthAdjust="spacingAndGlyphs" textLength="139" x="26" y="341.6245">requestedInfos : string[]</text><line style="stroke: #A80036; stroke-width: 1.5;" x1="7" x2="303" y1="348.2188" y2="348.2188"/><ellipse cx="17" cy="359.2188" fill="#84BE84" rx="3" ry="3" style="stroke: #038048; stroke-width: 1.0;"/><text fill="#000000" font-family="sans-serif" font-size="11" lengthAdjust="spacingAndGlyphs" textLength="272" x="26" y="362.4292">fromRequestBody(json: any): SubscribeRequest</text><!--MD5=[2ca1536628238a7dc78c5d90808014f9]
class Session--><rect fill="#FEFECE" filter="url(#f1g9o7ny6nnzys)" height="150.4375" id="Session" style="stroke: #A80036; stroke-width: 1.5;" width="252" x="1142" y="238"/><ellipse cx="1239.25" cy="254" fill="#ADD1B2" rx="11" ry="11" style="stroke: #A80036; stroke-width: 1.0;"/><path d="M1241.5938,249.6719 L1241.7656,249.75 C1241.9844,249.4375 1242.1875,249.3438 1242.4844,249.3438 C1242.7813,249.3438 1243.0625,249.4844 1243.2188,249.75 C1243.3125,249.9063 1243.3281,250.0313 1243.3281,250.4688 L1243.3281,251.8906 C1243.3281,252.3125 1243.2969,252.5 1243.1875,252.6563 C1243.0156,252.875 1242.75,253.0156 1242.4844,253.0156 C1242.2656,253.0156 1242.0313,252.9063 1241.8906,252.7656 C1241.75,252.6406 1241.7188,252.5156 1241.6563,252.1094 C1241.5625,251.7031 1241.3906,251.4844 1240.9063,251.2031 C1240.4375,250.9531 1239.8281,250.7969 1239.25,250.7969 C1237.5156,250.7969 1236.2656,252.1094 1236.2656,253.8906 L1236.2656,254.9844 C1236.2656,256.6875 1237.5625,257.7813 1239.6094,257.7813 C1240.375,257.7813 1241.0625,257.6563 1241.4844,257.3906 C1241.6719,257.2969 1241.6719,257.2969 1242.125,256.8125 C1242.3125,256.625 1242.5156,256.5469 1242.7344,256.5469 C1243.2031,256.5469 1243.5938,256.9375 1243.5938,257.3906 C1243.5938,257.7813 1243.2656,258.2344 1242.6875,258.6406 C1241.9375,259.1875 1240.7813,259.4844 1239.5625,259.4844 C1236.6719,259.4844 1234.5625,257.5938 1234.5625,255.0156 L1234.5625,253.8906 C1234.5625,251.1719 1236.5625,249.0938 1239.1875,249.0938 C1240.0625,249.0938 1240.6563,249.2344 1241.5938,249.6719 Z "/><text fill="#000000" font-family="sans-serif" font-size="12" lengthAdjust="spacingAndGlyphs" textLength="49" x="1259.75" y="258.1543">Session</text><line style="stroke: #A80036; stroke-width: 1.5;" x1="1143" x2="1393" y1="270" y2="270"/><ellipse cx="1153" cy="281" fill="none" rx="3" ry="3" style="stroke: #038048; stroke-width: 1.0;"/><text fill="#000000" font-family="sans-serif" font-size="11" lengthAdjust="spacingAndGlyphs" textLength="55" x="1162" y="284.2104">id : string</text><ellipse cx="1153" cy="293.8047" fill="none" rx="3" ry="3" style="stroke: #038048; stroke-width: 1.0;"/><text fill="#000000" font-family="sans-serif" font-size="11" lengthAdjust="spacingAndGlyphs" textLength="81" x="1162" y="297.0151">userId : string</text><rect fill="none" height="6" style="stroke: #C82930; stroke-width: 1.0;" width="6" x="1150" y="303.6094"/><text fill="#000000" font-family="sans-serif" font-size="11" lengthAdjust="spacingAndGlyphs" textLength="90" x="1162" y="309.8198">expTs : number</text><ellipse cx="1153" cy="319.4141" fill="none" rx="3" ry="3" style="stroke: #038048; stroke-width: 1.0;"/><text fill="#000000" font-family="sans-serif" font-size="11" lengthAdjust="spacingAndGlyphs" textLength="108" x="1162" y="322.6245">MAX_AGE : number</text><line style="stroke: #A80036; stroke-width: 1.5;" x1="1143" x2="1393" y1="329.2188" y2="329.2188"/><ellipse cx="1153" cy="340.2188" fill="#84BE84" rx="3" ry="3" style="stroke: #038048; stroke-width: 1.0;"/><text fill="#000000" font-family="sans-serif" font-size="11" lengthAdjust="spacingAndGlyphs" textLength="175" x="1162" y="343.4292">create(userId: string): Session</text><ellipse cx="1153" cy="353.0234" fill="#84BE84" rx="3" ry="3" style="stroke: #038048; stroke-width: 1.0;"/><text fill="#000000" font-family="sans-serif" font-size="11" lengthAdjust="spacingAndGlyphs" textLength="226" x="1162" y="356.2339">findById(id: string): Session | undefined</text><ellipse cx="1153" cy="365.8281" fill="#84BE84" rx="3" ry="3" style="stroke: #038048; stroke-width: 1.0;"/><text fill="#000000" font-family="sans-serif" font-size="11" lengthAdjust="spacingAndGlyphs" textLength="116" x="1162" y="369.0386">deleteExpired(): void</text><ellipse cx="1153" cy="378.6328" fill="#84BE84" rx="3" ry="3" style="stroke: #038048; stroke-width: 1.0;"/><text fill="#000000" font-family="sans-serif" font-size="11" lengthAdjust="spacingAndGlyphs" textLength="213" x="1162" y="381.8433">deleteAssociated(userId: string): void</text><!--MD5=[76b5e19c9337179d2d7ae334371d68c8]
class Notification--><rect fill="#FEFECE" filter="url(#f1g9o7ny6nnzys)" height="201.6563" id="Notification" style="stroke: #A80036; stroke-width: 1.5;" width="179" x="769.5" y="212"/><ellipse cx="819.25" cy="228" fill="#ADD1B2" rx="11" ry="11" style="stroke: #A80036; stroke-width: 1.0;"/><path d="M821.5938,223.6719 L821.7656,223.75 C821.9844,223.4375 822.1875,223.3438 822.4844,223.3438 C822.7813,223.3438 823.0625,223.4844 823.2188,223.75 C823.3125,223.9063 823.3281,224.0313 823.3281,224.4688 L823.3281,225.8906 C823.3281,226.3125 823.2969,226.5 823.1875,226.6563 C823.0156,226.875 822.75,227.0156 822.4844,227.0156 C822.2656,227.0156 822.0313,226.9063 821.8906,226.7656 C821.75,226.6406 821.7188,226.5156 821.6563,226.1094 C821.5625,225.7031 821.3906,225.4844 820.9063,225.2031 C820.4375,224.9531 819.8281,224.7969 819.25,224.7969 C817.5156,224.7969 816.2656,226.1094 816.2656,227.8906 L816.2656,228.9844 C816.2656,230.6875 817.5625,231.7813 819.6094,231.7813 C820.375,231.7813 821.0625,231.6563 821.4844,231.3906 C821.6719,231.2969 821.6719,231.2969 822.125,230.8125 C822.3125,230.625 822.5156,230.5469 822.7344,230.5469 C823.2031,230.5469 823.5938,230.9375 823.5938,231.3906 C823.5938,231.7813 823.2656,232.2344 822.6875,232.6406 C821.9375,233.1875 820.7813,233.4844 819.5625,233.4844 C816.6719,233.4844 814.5625,231.5938 814.5625,229.0156 L814.5625,227.8906 C814.5625,225.1719 816.5625,223.0938 819.1875,223.0938 C820.0625,223.0938 820.6563,223.2344 821.5938,223.6719 Z "/><text fill="#000000" font-family="sans-serif" font-size="12" lengthAdjust="spacingAndGlyphs" textLength="71" x="839.75" y="232.1543">Notification</text><line style="stroke: #A80036; stroke-width: 1.5;" x1="770.5" x2="947.5" y1="244" y2="244"/><ellipse cx="780.5" cy="255" fill="none" rx="3" ry="3" style="stroke: #038048; stroke-width: 1.0;"/><text fill="#000000" font-family="sans-serif" font-size="11" lengthAdjust="spacingAndGlyphs" textLength="61" x="789.5" y="258.2104">_id : string</text><ellipse cx="780.5" cy="267.8047" fill="none" rx="3" ry="3" style="stroke: #038048; stroke-width: 1.0;"/><text fill="#000000" font-family="sans-serif" font-size="11" lengthAdjust="spacingAndGlyphs" textLength="81" x="789.5" y="271.0151">userId : string</text><ellipse cx="780.5" cy="280.6094" fill="none" rx="3" ry="3" style="stroke: #038048; stroke-width: 1.0;"/><text fill="#000000" font-family="sans-serif" font-size="11" lengthAdjust="spacingAndGlyphs" textLength="90" x="789.5" y="283.8198">heading : string</text><ellipse cx="780.5" cy="293.4141" fill="none" rx="3" ry="3" style="stroke: #038048; stroke-width: 1.0;"/><text fill="#000000" font-family="sans-serif" font-size="11" lengthAdjust="spacingAndGlyphs" textLength="153" x="789.5" y="296.6245">subscription : Subscription</text><ellipse cx="780.5" cy="306.2188" fill="none" rx="3" ry="3" style="stroke: #038048; stroke-width: 1.0;"/><text fill="#000000" font-family="sans-serif" font-size="11" lengthAdjust="spacingAndGlyphs" textLength="117" x="789.5" y="309.4292">timestamp : number</text><ellipse cx="780.5" cy="319.0234" fill="none" rx="3" ry="3" style="stroke: #038048; stroke-width: 1.0;"/><text fill="#000000" font-family="sans-serif" font-size="11" lengthAdjust="spacingAndGlyphs" textLength="96" x="789.5" y="322.2339">imageUrl : string</text><ellipse cx="780.5" cy="331.8281" fill="none" rx="3" ry="3" style="stroke: #038048; stroke-width: 1.0;"/><text fill="#000000" font-family="sans-serif" font-size="11" lengthAdjust="spacingAndGlyphs" textLength="71" x="789.5" y="335.0386">isDone : any</text><ellipse cx="780.5" cy="344.6328" fill="none" rx="3" ry="3" style="stroke: #038048; stroke-width: 1.0;"/><text fill="#000000" font-family="sans-serif" font-size="11" lengthAdjust="spacingAndGlyphs" textLength="99" x="789.5" y="347.8433">isSilent : boolean</text><ellipse cx="780.5" cy="357.4375" fill="none" rx="3" ry="3" style="stroke: #038048; stroke-width: 1.0;"/><text fill="#000000" font-family="sans-serif" font-size="11" lengthAdjust="spacingAndGlyphs" textLength="115" x="789.5" y="360.6479">isArchived : boolean</text><ellipse cx="780.5" cy="370.2422" fill="none" rx="3" ry="3" style="stroke: #038048; stroke-width: 1.0;"/><text fill="#000000" font-family="sans-serif" font-size="11" lengthAdjust="spacingAndGlyphs" textLength="69" x="789.5" y="373.4526">type : string</text><ellipse cx="780.5" cy="383.0469" fill="none" rx="3" ry="3" style="stroke: #038048; stroke-width: 1.0;"/><text fill="#000000" font-family="sans-serif" font-size="11" lengthAdjust="spacingAndGlyphs" textLength="87" x="789.5" y="386.2573">content : string</text><ellipse cx="780.5" cy="395.8516" fill="none" rx="3" ry="3" style="stroke: #038048; stroke-width: 1.0;"/><text fill="#000000" font-family="sans-serif" font-size="11" lengthAdjust="spacingAndGlyphs" textLength="135" x="789.5" y="399.062">actions : Array&lt;Action&gt;</text><line style="stroke: #A80036; stroke-width: 1.5;" x1="770.5" x2="947.5" y1="405.6563" y2="405.6563"/><!--MD5=[335f4d9be48430461c68bf6d6fdba145]
class App--><rect fill="#FEFECE" filter="url(#f1g9o7ny6nnzys)" height="137.6328" id="App" style="stroke: #A80036; stroke-width: 1.5;" width="201" x="779.5" y="633"/><ellipse cx="863.75" cy="649" fill="#ADD1B2" rx="11" ry="11" style="stroke: #A80036; stroke-width: 1.0;"/><path d="M866.0938,644.6719 L866.2656,644.75 C866.4844,644.4375 866.6875,644.3438 866.9844,644.3438 C867.2813,644.3438 867.5625,644.4844 867.7188,644.75 C867.8125,644.9063 867.8281,645.0313 867.8281,645.4688 L867.8281,646.8906 C867.8281,647.3125 867.7969,647.5 867.6875,647.6563 C867.5156,647.875 867.25,648.0156 866.9844,648.0156 C866.7656,648.0156 866.5313,647.9063 866.3906,647.7656 C866.25,647.6406 866.2188,647.5156 866.1563,647.1094 C866.0625,646.7031 865.8906,646.4844 865.4063,646.2031 C864.9375,645.9531 864.3281,645.7969 863.75,645.7969 C862.0156,645.7969 860.7656,647.1094 860.7656,648.8906 L860.7656,649.9844 C860.7656,651.6875 862.0625,652.7813 864.1094,652.7813 C864.875,652.7813 865.5625,652.6563 865.9844,652.3906 C866.1719,652.2969 866.1719,652.2969 866.625,651.8125 C866.8125,651.625 867.0156,651.5469 867.2344,651.5469 C867.7031,651.5469 868.0938,651.9375 868.0938,652.3906 C868.0938,652.7813 867.7656,653.2344 867.1875,653.6406 C866.4375,654.1875 865.2813,654.4844 864.0625,654.4844 C861.1719,654.4844 859.0625,652.5938 859.0625,650.0156 L859.0625,648.8906 C859.0625,646.1719 861.0625,644.0938 863.6875,644.0938 C864.5625,644.0938 865.1563,644.2344 866.0938,644.6719 Z "/><text fill="#000000" font-family="sans-serif" font-size="12" lengthAdjust="spacingAndGlyphs" textLength="24" x="884.25" y="653.1543">App</text><line style="stroke: #A80036; stroke-width: 1.5;" x1="780.5" x2="979.5" y1="665" y2="665"/><ellipse cx="790.5" cy="676" fill="none" rx="3" ry="3" style="stroke: #038048; stroke-width: 1.0;"/><text fill="#000000" font-family="sans-serif" font-size="11" lengthAdjust="spacingAndGlyphs" textLength="61" x="799.5" y="679.2104">_id : string</text><ellipse cx="790.5" cy="688.8047" fill="none" rx="3" ry="3" style="stroke: #038048; stroke-width: 1.0;"/><text fill="#000000" font-family="sans-serif" font-size="11" lengthAdjust="spacingAndGlyphs" textLength="77" x="799.5" y="692.0151">name : string</text><ellipse cx="790.5" cy="701.6094" fill="none" rx="3" ry="3" style="stroke: #038048; stroke-width: 1.0;"/><text fill="#000000" font-family="sans-serif" font-size="11" lengthAdjust="spacingAndGlyphs" textLength="96" x="799.5" y="704.8198">imageUrl : string</text><ellipse cx="790.5" cy="714.4141" fill="none" rx="3" ry="3" style="stroke: #038048; stroke-width: 1.0;"/><text fill="#000000" font-family="sans-serif" font-size="11" lengthAdjust="spacingAndGlyphs" textLength="106" x="799.5" y="717.6245">isHidden : boolean</text><ellipse cx="790.5" cy="727.2188" fill="none" rx="3" ry="3" style="stroke: #038048; stroke-width: 1.0;"/><text fill="#000000" font-family="sans-serif" font-size="11" lengthAdjust="spacingAndGlyphs" textLength="89" x="799.5" y="730.4292">baseUrl : string</text><ellipse cx="790.5" cy="740.0234" fill="none" rx="3" ry="3" style="stroke: #038048; stroke-width: 1.0;"/><text fill="#000000" font-family="sans-serif" font-size="11" lengthAdjust="spacingAndGlyphs" textLength="175" x="799.5" y="743.2339">manageUrl : string | undefined</text><ellipse cx="790.5" cy="752.8281" fill="none" rx="3" ry="3" style="stroke: #038048; stroke-width: 1.0;"/><text fill="#000000" font-family="sans-serif" font-size="11" lengthAdjust="spacingAndGlyphs" textLength="67" x="799.5" y="756.0386">cert : string</text><line style="stroke: #A80036; stroke-width: 1.5;" x1="780.5" x2="979.5" y1="762.6328" y2="762.6328"/><!--MD5=[f8e7078f77c005d15b486c0c98deb1e6]
class Action--><rect fill="#FEFECE" filter="url(#f1g9o7ny6nnzys)" height="99.2188" id="Action" style="stroke: #A80036; stroke-width: 1.5;" width="155" x="781.5" y="474"/><ellipse cx="835.25" cy="490" fill="#ADD1B2" rx="11" ry="11" style="stroke: #A80036; stroke-width: 1.0;"/><path d="M837.5938,485.6719 L837.7656,485.75 C837.9844,485.4375 838.1875,485.3438 838.4844,485.3438 C838.7813,485.3438 839.0625,485.4844 839.2188,485.75 C839.3125,485.9063 839.3281,486.0313 839.3281,486.4688 L839.3281,487.8906 C839.3281,488.3125 839.2969,488.5 839.1875,488.6563 C839.0156,488.875 838.75,489.0156 838.4844,489.0156 C838.2656,489.0156 838.0313,488.9063 837.8906,488.7656 C837.75,488.6406 837.7188,488.5156 837.6563,488.1094 C837.5625,487.7031 837.3906,487.4844 836.9063,487.2031 C836.4375,486.9531 835.8281,486.7969 835.25,486.7969 C833.5156,486.7969 832.2656,488.1094 832.2656,489.8906 L832.2656,490.9844 C832.2656,492.6875 833.5625,493.7813 835.6094,493.7813 C836.375,493.7813 837.0625,493.6563 837.4844,493.3906 C837.6719,493.2969 837.6719,493.2969 838.125,492.8125 C838.3125,492.625 838.5156,492.5469 838.7344,492.5469 C839.2031,492.5469 839.5938,492.9375 839.5938,493.3906 C839.5938,493.7813 839.2656,494.2344 838.6875,494.6406 C837.9375,495.1875 836.7813,495.4844 835.5625,495.4844 C832.6719,495.4844 830.5625,493.5938 830.5625,491.0156 L830.5625,489.8906 C830.5625,487.1719 832.5625,485.0938 835.1875,485.0938 C836.0625,485.0938 836.6563,485.2344 837.5938,485.6719 Z "/><text fill="#000000" font-family="sans-serif" font-size="12" lengthAdjust="spacingAndGlyphs" textLength="39" x="855.75" y="494.1543">Action</text><line style="stroke: #A80036; stroke-width: 1.5;" x1="782.5" x2="935.5" y1="506" y2="506"/><ellipse cx="792.5" cy="517" fill="none" rx="3" ry="3" style="stroke: #038048; stroke-width: 1.0;"/><text fill="#000000" font-family="sans-serif" font-size="11" lengthAdjust="spacingAndGlyphs" textLength="69" x="801.5" y="520.2104">type : string</text><ellipse cx="792.5" cy="529.8047" fill="none" rx="3" ry="3" style="stroke: #038048; stroke-width: 1.0;"/><text fill="#000000" font-family="sans-serif" font-size="11" lengthAdjust="spacingAndGlyphs" textLength="60" x="801.5" y="533.0151">url : string</text><ellipse cx="792.5" cy="542.6094" fill="none" rx="3" ry="3" style="stroke: #038048; stroke-width: 1.0;"/><text fill="#000000" font-family="sans-serif" font-size="11" lengthAdjust="spacingAndGlyphs" textLength="129" x="801.5" y="545.8198">markAsDone : boolean</text><ellipse cx="792.5" cy="555.4141" fill="none" rx="3" ry="3" style="stroke: #038048; stroke-width: 1.0;"/><text fill="#000000" font-family="sans-serif" font-size="11" lengthAdjust="spacingAndGlyphs" textLength="66" x="801.5" y="558.6245">text : string</text><line style="stroke: #A80036; stroke-width: 1.5;" x1="782.5" x2="935.5" y1="565.2188" y2="565.2188"/><!--MD5=[0851f84a889f989e7bb0bebc385d0f09]
class Request--><rect fill="#FEFECE" filter="url(#f1g9o7ny6nnzys)" height="60.8047" id="Request" style="stroke: #A80036; stroke-width: 1.5;" width="129" x="1203.5" y="52.5"/><ellipse cx="1239.2" cy="68.5" fill="#B4A7E5" rx="11" ry="11" style="stroke: #A80036; stroke-width: 1.0;"/><path d="M1240.1531,65.2813 L1240.1531,71.7969 L1241.8719,71.7969 C1242.325,71.7969 1242.4656,71.8281 1242.6375,71.9531 C1242.8719,72.125 1242.9813,72.375 1242.9813,72.6563 C1242.9813,73.2188 1242.6219,73.5 1241.8719,73.5 L1236.7313,73.5 C1236.325,73.5 1236.1219,73.4531 1235.9656,73.3281 C1235.7469,73.1719 1235.6063,72.9063 1235.6063,72.6563 C1235.6063,72.3594 1235.7625,72.0781 1236.0125,71.9219 C1236.1688,71.8125 1236.2938,71.7969 1236.7313,71.7969 L1238.45,71.7969 L1238.45,65.2813 L1236.7313,65.2813 C1236.3094,65.2813 1236.1219,65.25 1235.9656,65.1406 C1235.7469,64.9688 1235.6063,64.7188 1235.6063,64.4375 C1235.6063,64.1563 1235.7625,63.8594 1236.0125,63.7031 C1236.1688,63.6094 1236.2938,63.5938 1236.7313,63.5938 L1241.8719,63.5938 C1242.325,63.5938 1242.4656,63.625 1242.6375,63.7344 C1242.8719,63.9063 1242.9813,64.1719 1242.9813,64.4375 C1242.9813,64.7344 1242.8406,65.0156 1242.575,65.1719 C1242.45,65.25 1242.2625,65.2813 1241.8719,65.2813 Z "/><text fill="#000000" font-family="sans-serif" font-size="12" font-style="italic" lengthAdjust="spacingAndGlyphs" textLength="51" x="1257.8" y="72.6543">Request</text><line style="stroke: #A80036; stroke-width: 1.5;" x1="1204.5" x2="1331.5" y1="84.5" y2="84.5"/><ellipse cx="1214.5" cy="95.5" fill="none" rx="3" ry="3" style="stroke: #038048; stroke-width: 1.0;"/><text fill="#000000" font-family="sans-serif" font-size="11" lengthAdjust="spacingAndGlyphs" textLength="103" x="1223.5" y="98.7104">session : Session</text><line style="stroke: #A80036; stroke-width: 1.5;" x1="1204.5" x2="1331.5" y1="105.3047" y2="105.3047"/><!--MD5=[06781a53d152b74966533a6255748241]
class AuthMiddleware--><rect fill="#FEFECE" filter="url(#f1g9o7ny6nnzys)" height="73.6094" id="AuthMiddleware" style="stroke: #A80036; stroke-width: 1.5;" width="161" x="339.5" y="276"/><ellipse cx="368" cy="292" fill="#ADD1B2" rx="11" ry="11" style="stroke: #A80036; stroke-width: 1.0;"/><path d="M370.3438,287.6719 L370.5156,287.75 C370.7344,287.4375 370.9375,287.3438 371.2344,287.3438 C371.5313,287.3438 371.8125,287.4844 371.9688,287.75 C372.0625,287.9063 372.0781,288.0313 372.0781,288.4688 L372.0781,289.8906 C372.0781,290.3125 372.0469,290.5 371.9375,290.6563 C371.7656,290.875 371.5,291.0156 371.2344,291.0156 C371.0156,291.0156 370.7813,290.9063 370.6406,290.7656 C370.5,290.6406 370.4688,290.5156 370.4063,290.1094 C370.3125,289.7031 370.1406,289.4844 369.6563,289.2031 C369.1875,288.9531 368.5781,288.7969 368,288.7969 C366.2656,288.7969 365.0156,290.1094 365.0156,291.8906 L365.0156,292.9844 C365.0156,294.6875 366.3125,295.7813 368.3594,295.7813 C369.125,295.7813 369.8125,295.6563 370.2344,295.3906 C370.4219,295.2969 370.4219,295.2969 370.875,294.8125 C371.0625,294.625 371.2656,294.5469 371.4844,294.5469 C371.9531,294.5469 372.3438,294.9375 372.3438,295.3906 C372.3438,295.7813 372.0156,296.2344 371.4375,296.6406 C370.6875,297.1875 369.5313,297.4844 368.3125,297.4844 C365.4219,297.4844 363.3125,295.5938 363.3125,293.0156 L363.3125,291.8906 C363.3125,289.1719 365.3125,287.0938 367.9375,287.0938 C368.8125,287.0938 369.4063,287.2344 370.3438,287.6719 Z "/><text fill="#000000" font-family="sans-serif" font-size="12" lengthAdjust="spacingAndGlyphs" textLength="99" x="385" y="296.1543">AuthMiddleware</text><line style="stroke: #A80036; stroke-width: 1.5;" x1="340.5" x2="499.5" y1="308" y2="308"/><line style="stroke: #A80036; stroke-width: 1.5;" x1="340.5" x2="499.5" y1="316" y2="316"/><ellipse cx="350.5" cy="327" fill="#84BE84" rx="3" ry="3" style="stroke: #038048; stroke-width: 1.0;"/><text fill="#000000" font-family="sans-serif" font-size="11" lengthAdjust="spacingAndGlyphs" textLength="135" x="359.5" y="330.2104">auth(): express.Handler</text><ellipse cx="350.5" cy="339.8047" fill="#84BE84" rx="3" ry="3" style="stroke: #038048; stroke-width: 1.0;"/><text fill="#000000" font-family="sans-serif" font-size="11" lengthAdjust="spacingAndGlyphs" textLength="85" x="359.5" y="343.0151">daemon(): void</text><!--MD5=[a83d828be13d333e1fddb3d4d9d97191]
class Handler--><rect fill="#FEFECE" filter="url(#f1g9o7ny6nnzys)" height="73.6094" id="Handler" style="stroke: #A80036; stroke-width: 1.5;" width="184" x="1901" y="46"/><ellipse cx="1964.25" cy="62" fill="#ADD1B2" rx="11" ry="11" style="stroke: #A80036; stroke-width: 1.0;"/><path d="M1966.5938,57.6719 L1966.7656,57.75 C1966.9844,57.4375 1967.1875,57.3438 1967.4844,57.3438 C1967.7813,57.3438 1968.0625,57.4844 1968.2188,57.75 C1968.3125,57.9063 1968.3281,58.0313 1968.3281,58.4688 L1968.3281,59.8906 C1968.3281,60.3125 1968.2969,60.5 1968.1875,60.6563 C1968.0156,60.875 1967.75,61.0156 1967.4844,61.0156 C1967.2656,61.0156 1967.0313,60.9063 1966.8906,60.7656 C1966.75,60.6406 1966.7188,60.5156 1966.6563,60.1094 C1966.5625,59.7031 1966.3906,59.4844 1965.9063,59.2031 C1965.4375,58.9531 1964.8281,58.7969 1964.25,58.7969 C1962.5156,58.7969 1961.2656,60.1094 1961.2656,61.8906 L1961.2656,62.9844 C1961.2656,64.6875 1962.5625,65.7813 1964.6094,65.7813 C1965.375,65.7813 1966.0625,65.6563 1966.4844,65.3906 C1966.6719,65.2969 1966.6719,65.2969 1967.125,64.8125 C1967.3125,64.625 1967.5156,64.5469 1967.7344,64.5469 C1968.2031,64.5469 1968.5938,64.9375 1968.5938,65.3906 C1968.5938,65.7813 1968.2656,66.2344 1967.6875,66.6406 C1966.9375,67.1875 1965.7813,67.4844 1964.5625,67.4844 C1961.6719,67.4844 1959.5625,65.5938 1959.5625,63.0156 L1959.5625,61.8906 C1959.5625,59.1719 1961.5625,57.0938 1964.1875,57.0938 C1965.0625,57.0938 1965.6563,57.2344 1966.5938,57.6719 Z "/><text fill="#000000" font-family="sans-serif" font-size="12" lengthAdjust="spacingAndGlyphs" textLength="49" x="1984.75" y="66.1543">Handler</text><line style="stroke: #A80036; stroke-width: 1.5;" x1="1902" x2="2084" y1="78" y2="78"/><polygon fill="none" points="1912,84,1916,88,1912,92,1908,88" style="stroke: #B38D22; stroke-width: 1.0;"/><text fill="#000000" font-family="sans-serif" font-size="11" lengthAdjust="spacingAndGlyphs" textLength="134" x="1921" y="92.2104">router : express.Router</text><line style="stroke: #A80036; stroke-width: 1.5;" x1="1902" x2="2084" y1="98.8047" y2="98.8047"/><ellipse cx="1912" cy="109.8047" fill="#84BE84" rx="3" ry="3" style="stroke: #038048; stroke-width: 1.0;"/><text fill="#000000" font-family="sans-serif" font-size="11" lengthAdjust="spacingAndGlyphs" textLength="158" x="1921" y="113.0151">getRouter(): express.Router</text><!--MD5=[2a4e54f6a4182fe25cccaf89cd34d22c]
class UserHandler--><rect fill="#FEFECE" filter="url(#f1g9o7ny6nnzys)" height="86.4141" id="UserHandler" style="stroke: #A80036; stroke-width: 1.5;" width="120" x="1429" y="270"/><ellipse cx="1448.5" cy="286" fill="#ADD1B2" rx="11" ry="11" style="stroke: #A80036; stroke-width: 1.0;"/><path d="M1450.8438,281.6719 L1451.0156,281.75 C1451.2344,281.4375 1451.4375,281.3438 1451.7344,281.3438 C1452.0313,281.3438 1452.3125,281.4844 1452.4688,281.75 C1452.5625,281.9063 1452.5781,282.0313 1452.5781,282.4688 L1452.5781,283.8906 C1452.5781,284.3125 1452.5469,284.5 1452.4375,284.6563 C1452.2656,284.875 1452,285.0156 1451.7344,285.0156 C1451.5156,285.0156 1451.2813,284.9063 1451.1406,284.7656 C1451,284.6406 1450.9688,284.5156 1450.9063,284.1094 C1450.8125,283.7031 1450.6406,283.4844 1450.1563,283.2031 C1449.6875,282.9531 1449.0781,282.7969 1448.5,282.7969 C1446.7656,282.7969 1445.5156,284.1094 1445.5156,285.8906 L1445.5156,286.9844 C1445.5156,288.6875 1446.8125,289.7813 1448.8594,289.7813 C1449.625,289.7813 1450.3125,289.6563 1450.7344,289.3906 C1450.9219,289.2969 1450.9219,289.2969 1451.375,288.8125 C1451.5625,288.625 1451.7656,288.5469 1451.9844,288.5469 C1452.4531,288.5469 1452.8438,288.9375 1452.8438,289.3906 C1452.8438,289.7813 1452.5156,290.2344 1451.9375,290.6406 C1451.1875,291.1875 1450.0313,291.4844 1448.8125,291.4844 C1445.9219,291.4844 1443.8125,289.5938 1443.8125,287.0156 L1443.8125,285.8906 C1443.8125,283.1719 1445.8125,281.0938 1448.4375,281.0938 C1449.3125,281.0938 1449.9063,281.2344 1450.8438,281.6719 Z "/><text fill="#000000" font-family="sans-serif" font-size="12" lengthAdjust="spacingAndGlyphs" textLength="78" x="1463.5" y="290.1543">UserHandler</text><line style="stroke: #A80036; stroke-width: 1.5;" x1="1430" x2="1548" y1="302" y2="302"/><rect fill="none" height="6" style="stroke: #C82930; stroke-width: 1.0;" width="6" x="1437" y="310"/><text fill="#000000" font-family="sans-serif" font-size="11" lengthAdjust="spacingAndGlyphs" textLength="77" x="1449" y="316.2104">getUser : any</text><rect fill="none" height="6" style="stroke: #C82930; stroke-width: 1.0;" width="6" x="1437" y="322.8047"/><text fill="#000000" font-family="sans-serif" font-size="11" lengthAdjust="spacingAndGlyphs" textLength="77" x="1449" y="329.0151">putUser : any</text><rect fill="none" height="6" style="stroke: #C82930; stroke-width: 1.0;" width="6" x="1437" y="335.6094"/><text fill="#000000" font-family="sans-serif" font-size="11" lengthAdjust="spacingAndGlyphs" textLength="94" x="1449" y="341.8198">deleteUser : any</text><line style="stroke: #A80036; stroke-width: 1.5;" x1="1430" x2="1548" y1="348.4141" y2="348.4141"/><!--MD5=[e883be3893548ec7c182fa914abede3d]
class SubscriptionHandler--><rect fill="#FEFECE" filter="url(#f1g9o7ny6nnzys)" height="112.0234" id="SubscriptionHandler" style="stroke: #A80036; stroke-width: 1.5;" width="186" x="1584" y="257"/><ellipse cx="1611.15" cy="273" fill="#ADD1B2" rx="11" ry="11" style="stroke: #A80036; stroke-width: 1.0;"/><path d="M1613.4938,268.6719 L1613.6656,268.75 C1613.8844,268.4375 1614.0875,268.3438 1614.3844,268.3438 C1614.6813,268.3438 1614.9625,268.4844 1615.1188,268.75 C1615.2125,268.9063 1615.2281,269.0313 1615.2281,269.4688 L1615.2281,270.8906 C1615.2281,271.3125 1615.1969,271.5 1615.0875,271.6563 C1614.9156,271.875 1614.65,272.0156 1614.3844,272.0156 C1614.1656,272.0156 1613.9313,271.9063 1613.7906,271.7656 C1613.65,271.6406 1613.6188,271.5156 1613.5563,271.1094 C1613.4625,270.7031 1613.2906,270.4844 1612.8063,270.2031 C1612.3375,269.9531 1611.7281,269.7969 1611.15,269.7969 C1609.4156,269.7969 1608.1656,271.1094 1608.1656,272.8906 L1608.1656,273.9844 C1608.1656,275.6875 1609.4625,276.7813 1611.5094,276.7813 C1612.275,276.7813 1612.9625,276.6563 1613.3844,276.3906 C1613.5719,276.2969 1613.5719,276.2969 1614.025,275.8125 C1614.2125,275.625 1614.4156,275.5469 1614.6344,275.5469 C1615.1031,275.5469 1615.4938,275.9375 1615.4938,276.3906 C1615.4938,276.7813 1615.1656,277.2344 1614.5875,277.6406 C1613.8375,278.1875 1612.6813,278.4844 1611.4625,278.4844 C1608.5719,278.4844 1606.4625,276.5938 1606.4625,274.0156 L1606.4625,272.8906 C1606.4625,270.1719 1608.4625,268.0938 1611.0875,268.0938 C1611.9625,268.0938 1612.5563,268.2344 1613.4938,268.6719 Z "/><text fill="#000000" font-family="sans-serif" font-size="12" lengthAdjust="spacingAndGlyphs" textLength="127" x="1627.85" y="277.1543">SubscriptionHandler</text><line style="stroke: #A80036; stroke-width: 1.5;" x1="1585" x2="1769" y1="289" y2="289"/><rect fill="none" height="6" style="stroke: #C82930; stroke-width: 1.0;" width="6" x="1592" y="297"/><text fill="#000000" font-family="sans-serif" font-size="11" lengthAdjust="spacingAndGlyphs" textLength="71" x="1604" y="303.2104">getApp : any</text><rect fill="none" height="6" style="stroke: #C82930; stroke-width: 1.0;" width="6" x="1592" y="309.8047"/><text fill="#000000" font-family="sans-serif" font-size="11" lengthAdjust="spacingAndGlyphs" textLength="128" x="1604" y="316.0151">getSubscriptions : any</text><rect fill="none" height="6" style="stroke: #C82930; stroke-width: 1.0;" width="6" x="1592" y="322.6094"/><text fill="#000000" font-family="sans-serif" font-size="11" lengthAdjust="spacingAndGlyphs" textLength="138" x="1604" y="328.8198">deleteSubscription : any</text><rect fill="none" height="6" style="stroke: #C82930; stroke-width: 1.0;" width="6" x="1592" y="335.4141"/><text fill="#000000" font-family="sans-serif" font-size="11" lengthAdjust="spacingAndGlyphs" textLength="153" x="1604" y="341.6245">getSubscribeRequest : any</text><rect fill="none" height="6" style="stroke: #C82930; stroke-width: 1.0;" width="6" x="1592" y="348.2188"/><text fill="#000000" font-family="sans-serif" font-size="11" lengthAdjust="spacingAndGlyphs" textLength="160" x="1604" y="354.4292">postSubscribeRequest : any</text><line style="stroke: #A80036; stroke-width: 1.5;" x1="1585" x2="1769" y1="361.0234" y2="361.0234"/><!--MD5=[e9a5215718d2e517dd8cfaf5212ed360]
class SPHandler--><rect fill="#FEFECE" filter="url(#f1g9o7ny6nnzys)" height="112.0234" id="SPHandler" style="stroke: #A80036; stroke-width: 1.5;" width="156" x="1805" y="257"/><ellipse cx="1846.55" cy="273" fill="#ADD1B2" rx="11" ry="11" style="stroke: #A80036; stroke-width: 1.0;"/><path d="M1848.8938,268.6719 L1849.0656,268.75 C1849.2844,268.4375 1849.4875,268.3438 1849.7844,268.3438 C1850.0813,268.3438 1850.3625,268.4844 1850.5188,268.75 C1850.6125,268.9063 1850.6281,269.0313 1850.6281,269.4688 L1850.6281,270.8906 C1850.6281,271.3125 1850.5969,271.5 1850.4875,271.6563 C1850.3156,271.875 1850.05,272.0156 1849.7844,272.0156 C1849.5656,272.0156 1849.3313,271.9063 1849.1906,271.7656 C1849.05,271.6406 1849.0188,271.5156 1848.9563,271.1094 C1848.8625,270.7031 1848.6906,270.4844 1848.2063,270.2031 C1847.7375,269.9531 1847.1281,269.7969 1846.55,269.7969 C1844.8156,269.7969 1843.5656,271.1094 1843.5656,272.8906 L1843.5656,273.9844 C1843.5656,275.6875 1844.8625,276.7813 1846.9094,276.7813 C1847.675,276.7813 1848.3625,276.6563 1848.7844,276.3906 C1848.9719,276.2969 1848.9719,276.2969 1849.425,275.8125 C1849.6125,275.625 1849.8156,275.5469 1850.0344,275.5469 C1850.5031,275.5469 1850.8938,275.9375 1850.8938,276.3906 C1850.8938,276.7813 1850.5656,277.2344 1849.9875,277.6406 C1849.2375,278.1875 1848.0813,278.4844 1846.8625,278.4844 C1843.9719,278.4844 1841.8625,276.5938 1841.8625,274.0156 L1841.8625,272.8906 C1841.8625,270.1719 1843.8625,268.0938 1846.4875,268.0938 C1847.3625,268.0938 1847.9563,268.2344 1848.8938,268.6719 Z "/><text fill="#000000" font-family="sans-serif" font-size="12" lengthAdjust="spacingAndGlyphs" textLength="65" x="1866.45" y="277.1543">SPHandler</text><line style="stroke: #A80036; stroke-width: 1.5;" x1="1806" x2="1960" y1="289" y2="289"/><rect fill="none" height="6" style="stroke: #C82930; stroke-width: 1.0;" width="6" x="1813" y="297"/><text fill="#000000" font-family="sans-serif" font-size="11" lengthAdjust="spacingAndGlyphs" textLength="78" x="1825" y="303.2104">postApp : any</text><rect fill="none" height="6" style="stroke: #C82930; stroke-width: 1.0;" width="6" x="1813" y="309.8047"/><text fill="#000000" font-family="sans-serif" font-size="11" lengthAdjust="spacingAndGlyphs" textLength="71" x="1825" y="316.0151">putApp : any</text><rect fill="none" height="6" style="stroke: #C82930; stroke-width: 1.0;" width="6" x="1813" y="322.6094"/><text fill="#000000" font-family="sans-serif" font-size="11" lengthAdjust="spacingAndGlyphs" textLength="120" x="1825" y="328.8198">postNotification : any</text><rect fill="none" height="6" style="stroke: #C82930; stroke-width: 1.0;" width="6" x="1813" y="335.4141"/><text fill="#000000" font-family="sans-serif" font-size="11" lengthAdjust="spacingAndGlyphs" textLength="113" x="1825" y="341.6245">putNotification : any</text><rect fill="none" height="6" style="stroke: #C82930; stroke-width: 1.0;" width="6" x="1813" y="348.2188"/><text fill="#000000" font-family="sans-serif" font-size="11" lengthAdjust="spacingAndGlyphs" textLength="130" x="1825" y="354.4292">deleteNotification : any</text><line style="stroke: #A80036; stroke-width: 1.5;" x1="1806" x2="1960" y1="361.0234" y2="361.0234"/><!--MD5=[fc77a0a9f533582e2a31043d1a44d081]
class NotificationHandler--><rect fill="#FEFECE" filter="url(#f1g9o7ny6nnzys)" height="99.2188" id="NotificationHandler" style="stroke: #A80036; stroke-width: 1.5;" width="214" x="1996" y="263.5"/><ellipse cx="2038.9" cy="279.5" fill="#ADD1B2" rx="11" ry="11" style="stroke: #A80036; stroke-width: 1.0;"/><path d="M2041.2438,275.1719 L2041.4156,275.25 C2041.6344,274.9375 2041.8375,274.8438 2042.1344,274.8438 C2042.4313,274.8438 2042.7125,274.9844 2042.8688,275.25 C2042.9625,275.4063 2042.9781,275.5313 2042.9781,275.9688 L2042.9781,277.3906 C2042.9781,277.8125 2042.9469,278 2042.8375,278.1563 C2042.6656,278.375 2042.4,278.5156 2042.1344,278.5156 C2041.9156,278.5156 2041.6813,278.4063 2041.5406,278.2656 C2041.4,278.1406 2041.3688,278.0156 2041.3063,277.6094 C2041.2125,277.2031 2041.0406,276.9844 2040.5563,276.7031 C2040.0875,276.4531 2039.4781,276.2969 2038.9,276.2969 C2037.1656,276.2969 2035.9156,277.6094 2035.9156,279.3906 L2035.9156,280.4844 C2035.9156,282.1875 2037.2125,283.2813 2039.2594,283.2813 C2040.025,283.2813 2040.7125,283.1563 2041.1344,282.8906 C2041.3219,282.7969 2041.3219,282.7969 2041.775,282.3125 C2041.9625,282.125 2042.1656,282.0469 2042.3844,282.0469 C2042.8531,282.0469 2043.2438,282.4375 2043.2438,282.8906 C2043.2438,283.2813 2042.9156,283.7344 2042.3375,284.1406 C2041.5875,284.6875 2040.4313,284.9844 2039.2125,284.9844 C2036.3219,284.9844 2034.2125,283.0938 2034.2125,280.5156 L2034.2125,279.3906 C2034.2125,276.6719 2036.2125,274.5938 2038.8375,274.5938 C2039.7125,274.5938 2040.3063,274.7344 2041.2438,275.1719 Z "/><text fill="#000000" font-family="sans-serif" font-size="12" lengthAdjust="spacingAndGlyphs" textLength="120" x="2059.1" y="283.6543">NotificationHandler</text><line style="stroke: #A80036; stroke-width: 1.5;" x1="1997" x2="2209" y1="295.5" y2="295.5"/><rect fill="none" height="6" style="stroke: #C82930; stroke-width: 1.0;" width="6" x="2004" y="303.5"/><text fill="#000000" font-family="sans-serif" font-size="11" lengthAdjust="spacingAndGlyphs" textLength="120" x="2016" y="309.7104">getNotifications : any</text><rect fill="none" height="6" style="stroke: #C82930; stroke-width: 1.0;" width="6" x="2004" y="316.3047"/><text fill="#000000" font-family="sans-serif" font-size="11" lengthAdjust="spacingAndGlyphs" textLength="174" x="2016" y="322.5151">markNotificationsAsDone : any</text><rect fill="none" height="6" style="stroke: #C82930; stroke-width: 1.0;" width="6" x="2004" y="329.1094"/><text fill="#000000" font-family="sans-serif" font-size="11" lengthAdjust="spacingAndGlyphs" textLength="188" x="2016" y="335.3198">markNotificationsAsUndone : any</text><rect fill="none" height="6" style="stroke: #C82930; stroke-width: 1.0;" width="6" x="2004" y="341.9141"/><text fill="#000000" font-family="sans-serif" font-size="11" lengthAdjust="spacingAndGlyphs" textLength="137" x="2016" y="348.1245">deleteNotifications : any</text><line style="stroke: #A80036; stroke-width: 1.5;" x1="1997" x2="2209" y1="354.7188" y2="354.7188"/><!--MD5=[f14c542ced4965609e0be3c0b87da731]
class GeneralHandler--><rect fill="#FEFECE" filter="url(#f1g9o7ny6nnzys)" height="99.2188" id="GeneralHandler" style="stroke: #A80036; stroke-width: 1.5;" width="148" x="2245" y="263.5"/><ellipse cx="2268.1" cy="279.5" fill="#ADD1B2" rx="11" ry="11" style="stroke: #A80036; stroke-width: 1.0;"/><path d="M2270.4438,275.1719 L2270.6156,275.25 C2270.8344,274.9375 2271.0375,274.8438 2271.3344,274.8438 C2271.6313,274.8438 2271.9125,274.9844 2272.0688,275.25 C2272.1625,275.4063 2272.1781,275.5313 2272.1781,275.9688 L2272.1781,277.3906 C2272.1781,277.8125 2272.1469,278 2272.0375,278.1563 C2271.8656,278.375 2271.6,278.5156 2271.3344,278.5156 C2271.1156,278.5156 2270.8813,278.4063 2270.7406,278.2656 C2270.6,278.1406 2270.5688,278.0156 2270.5063,277.6094 C2270.4125,277.2031 2270.2406,276.9844 2269.7563,276.7031 C2269.2875,276.4531 2268.6781,276.2969 2268.1,276.2969 C2266.3656,276.2969 2265.1156,277.6094 2265.1156,279.3906 L2265.1156,280.4844 C2265.1156,282.1875 2266.4125,283.2813 2268.4594,283.2813 C2269.225,283.2813 2269.9125,283.1563 2270.3344,282.8906 C2270.5219,282.7969 2270.5219,282.7969 2270.975,282.3125 C2271.1625,282.125 2271.3656,282.0469 2271.5844,282.0469 C2272.0531,282.0469 2272.4438,282.4375 2272.4438,282.8906 C2272.4438,283.2813 2272.1156,283.7344 2271.5375,284.1406 C2270.7875,284.6875 2269.6313,284.9844 2268.4125,284.9844 C2265.5219,284.9844 2263.4125,283.0938 2263.4125,280.5156 L2263.4125,279.3906 C2263.4125,276.6719 2265.4125,274.5938 2268.0375,274.5938 C2268.9125,274.5938 2269.5063,274.7344 2270.4438,275.1719 Z "/><text fill="#000000" font-family="sans-serif" font-size="12" lengthAdjust="spacingAndGlyphs" textLength="98" x="2283.9" y="283.6543">GeneralHandler</text><line style="stroke: #A80036; stroke-width: 1.5;" x1="2246" x2="2392" y1="295.5" y2="295.5"/><rect fill="none" height="6" style="stroke: #C82930; stroke-width: 1.0;" width="6" x="2253" y="303.5"/><text fill="#000000" font-family="sans-serif" font-size="11" lengthAdjust="spacingAndGlyphs" textLength="56" x="2265" y="309.7104">ping : any</text><rect fill="none" height="6" style="stroke: #C82930; stroke-width: 1.0;" width="6" x="2253" y="316.3047"/><text fill="#000000" font-family="sans-serif" font-size="11" lengthAdjust="spacingAndGlyphs" textLength="59" x="2265" y="322.5151">login : any</text><rect fill="none" height="6" style="stroke: #C82930; stroke-width: 1.0;" width="6" x="2253" y="329.1094"/><text fill="#000000" font-family="sans-serif" font-size="11" lengthAdjust="spacingAndGlyphs" textLength="77" x="2265" y="335.3198">register : any</text><rect fill="none" height="6" style="stroke: #C82930; stroke-width: 1.0;" width="6" x="2253" y="341.9141"/><text fill="#000000" font-family="sans-serif" font-size="11" lengthAdjust="spacingAndGlyphs" textLength="122" x="2265" y="348.1245">forgetPassword : any</text><line style="stroke: #A80036; stroke-width: 1.5;" x1="2246" x2="2392" y1="354.7188" y2="354.7188"/><!--MD5=[99f32fa4e73f6681c1a0ac5117bd3ce1]
class Array--><rect fill="#FEFECE" filter="url(#f1g9o7ny6nnzys)" height="48" id="Array" style="stroke: #A80036; stroke-width: 1.5;" width="64" x="972" y="499.5"/><ellipse cx="987" cy="515.5" fill="#ADD1B2" rx="11" ry="11" style="stroke: #A80036; stroke-width: 1.0;"/><path d="M989.3438,511.1719 L989.5156,511.25 C989.7344,510.9375 989.9375,510.8438 990.2344,510.8438 C990.5313,510.8438 990.8125,510.9844 990.9688,511.25 C991.0625,511.4063 991.0781,511.5313 991.0781,511.9688 L991.0781,513.3906 C991.0781,513.8125 991.0469,514 990.9375,514.1563 C990.7656,514.375 990.5,514.5156 990.2344,514.5156 C990.0156,514.5156 989.7813,514.4063 989.6406,514.2656 C989.5,514.1406 989.4688,514.0156 989.4063,513.6094 C989.3125,513.2031 989.1406,512.9844 988.6563,512.7031 C988.1875,512.4531 987.5781,512.2969 987,512.2969 C985.2656,512.2969 984.0156,513.6094 984.0156,515.3906 L984.0156,516.4844 C984.0156,518.1875 985.3125,519.2813 987.3594,519.2813 C988.125,519.2813 988.8125,519.1563 989.2344,518.8906 C989.4219,518.7969 989.4219,518.7969 989.875,518.3125 C990.0625,518.125 990.2656,518.0469 990.4844,518.0469 C990.9531,518.0469 991.3438,518.4375 991.3438,518.8906 C991.3438,519.2813 991.0156,519.7344 990.4375,520.1406 C989.6875,520.6875 988.5313,520.9844 987.3125,520.9844 C984.4219,520.9844 982.3125,519.0938 982.3125,516.5156 L982.3125,515.3906 C982.3125,512.6719 984.3125,510.5938 986.9375,510.5938 C987.8125,510.5938 988.4063,510.7344 989.3438,511.1719 Z "/><text fill="#000000" font-family="sans-serif" font-size="12" lengthAdjust="spacingAndGlyphs" textLength="32" x="1001" y="519.6543">Array</text><line style="stroke: #A80036; stroke-width: 1.5;" x1="973" x2="1035" y1="531.5" y2="531.5"/><line style="stroke: #A80036; stroke-width: 1.5;" x1="973" x2="1035" y1="539.5" y2="539.5"/><!--MD5=[ccc04b8595734d76aa88ba0088105582]
link Subscription to App--><path d="M729.388,573.197 C749.962,590.655 773.605,610.718 795.969,629.695 " fill="none" id="Subscription-&gt;App" style="stroke: #A80036; stroke-width: 1.0;"/><polygon fill="#A80036" points="799.836,632.976,795.5602,624.1037,796.023,629.7416,790.3851,630.2045,799.836,632.976" style="stroke: #A80036; stroke-width: 1.0;"/><!--MD5=[c710ea31b188414d8c153051088322c1]
link Notification to Subscription--><path d="M769.334,413.975 C751.992,433.311 734.474,452.843 719.172,469.905 " fill="none" id="Notification-&gt;Subscription" style="stroke: #A80036; stroke-width: 1.0;"/><polygon fill="#A80036" points="715.739,473.732,724.7256,469.702,719.0771,470.0095,718.7696,464.361,715.739,473.732" style="stroke: #A80036; stroke-width: 1.0;"/><!--MD5=[d59cd7c8d8c1c44626d6af0265ee5b9b]
link Notification to Array--><path d="M928.739,414.28 C949.33,443.889 970.219,473.925 984.748,494.817 " fill="none" id="Notification-&gt;Array" style="stroke: #A80036; stroke-width: 1.0;"/><polygon fill="#A80036" points="987.749,499.133,985.8944,489.4603,984.8943,495.0281,979.3265,494.0279,987.749,499.133" style="stroke: #A80036; stroke-width: 1.0;"/><!--MD5=[d0259a683ce40675d0aeae665cbb280d]
link Notification to Action--><path d="M859,414.28 C859,433.095 859,452.082 859,468.785 " fill="none" id="Notification-&gt;Action" style="stroke: #A80036; stroke-width: 1.0;"/><polygon fill="#A80036" points="859,473.893,863,464.893,859,468.893,855,464.893,859,473.893" style="stroke: #A80036; stroke-width: 1.0;"/><!--MD5=[57f68ba381a209655d14b99452ce3f1a]
link Request to Session--><path d="M1268,113.807 C1268,143.788 1268,191.322 1268,232.323 " fill="none" id="Request-&gt;Session" style="stroke: #A80036; stroke-width: 1.0;"/><polygon fill="#A80036" points="1268,237.546,1272,228.546,1268,232.546,1264,228.546,1268,237.546" style="stroke: #A80036; stroke-width: 1.0;"/><!--MD5=[21bcb7a78984d1f6e2d5a329649e2b0b]
link Handler to express.Router--><path d="M2085.2,91.975 C2176.83,104.184 2316.92,134.92 2411,212 C2433.7,230.601 2448.25,261.348 2456.46,283.846 " fill="none" id="Handler-&gt;express.Router" style="stroke: #A80036; stroke-width: 1.0;"/><polygon fill="#A80036" points="2458.22,288.8,2458.9879,278.9811,2456.5517,284.0865,2451.4463,281.6504,2458.22,288.8" style="stroke: #A80036; stroke-width: 1.0;"/><!--MD5=[9e443dc0389c31e83114fc7bb7026a82]
reverse link mongoose.Document to User--><path d="M755.178,122.593 C724.778,159.461 678.646,215.408 644.393,256.948 " fill="none" id="mongoose.Document&lt;-User" style="stroke: #A80036; stroke-width: 1.0;"/><polygon fill="none" points="749.815,118.094,767.939,107.117,760.616,127.001,749.815,118.094" style="stroke: #A80036; stroke-width: 1.0;"/><!--MD5=[c48fb9cbd61ccf6a1c0422e7834c451b]
reverse link mongoose.Document to Subscription--><path d="M775.218,126.472 C768.354,151.368 759.583,183.441 752,212 C727.464,304.406 699.842,412.579 684.318,473.771 " fill="none" id="mongoose.Document&lt;-Subscription" style="stroke: #A80036; stroke-width: 1.0;"/><polygon fill="none" points="768.498,124.507,780.575,107.096,781.992,128.238,768.498,124.507" style="stroke: #A80036; stroke-width: 1.0;"/><!--MD5=[9b01937925a5f5a05409d71430acef37]
reverse link mongoose.Document to Notification--><path d="M800.345,126.26 C807.971,150.407 817.88,181.788 827.378,211.862 " fill="none" id="mongoose.Document&lt;-Notification" style="stroke: #A80036; stroke-width: 1.0;"/><polygon fill="none" points="793.648,128.296,794.3,107.117,806.998,124.08,793.648,128.296" style="stroke: #A80036; stroke-width: 1.0;"/><!--MD5=[ac9644d4c6eea93a514d8be953c3bb29]
reverse link mongoose.Document to App--><path d="M852.179,116.978 C890.179,139.183 936.318,171.741 966,212 C1038.81,310.757 1033.42,352.877 1053,474 C1060.02,517.436 1072.81,533.709 1053,573 C1037.11,604.528 1009.37,630.221 980.708,650.092 " fill="none" id="mongoose.Document&lt;-App" style="stroke: #A80036; stroke-width: 1.0;"/><polygon fill="none" points="848.562,122.974,834.561,107.069,855.425,110.772,848.562,122.974" style="stroke: #A80036; stroke-width: 1.0;"/><!--MD5=[0b306704cc5748c9a9e25467002e0d2d]
reverse link Handler to UserHandler--><path d="M1880.83,98.49 C1789.86,114.529 1661.65,147.228 1567,212 C1545.2,226.921 1526.69,249.827 1513.19,269.952 " fill="none" id="Handler&lt;-UserHandler" style="stroke: #A80036; stroke-width: 1.0;"/><polygon fill="none" points="1879.92,91.545,1900.8,95.13,1882.24,105.351,1879.92,91.545" style="stroke: #A80036; stroke-width: 1.0;"/><!--MD5=[275737ff6320b19ad903342a136beaef]
reverse link Handler to SubscriptionHandler--><path d="M1911.38,130.472 C1872.9,153.496 1827,182.616 1788,212 C1769.87,225.658 1751.17,241.662 1734.4,256.813 " fill="none" id="Handler&lt;-SubscriptionHandler" style="stroke: #A80036; stroke-width: 1.0;"/><polygon fill="none" points="1907.98,124.346,1928.76,120.18,1915.12,136.393,1907.98,124.346" style="stroke: #A80036; stroke-width: 1.0;"/><!--MD5=[41b14c7b1e47794366ad31fe67f769c6]
reverse link Handler to SPHandler--><path d="M1966.82,138.259 C1949.53,174.094 1926.95,220.907 1909.58,256.911 " fill="none" id="Handler&lt;-SPHandler" style="stroke: #A80036; stroke-width: 1.0;"/><polygon fill="none" points="1960.57,135.099,1975.57,120.127,1973.18,141.182,1960.57,135.099" style="stroke: #A80036; stroke-width: 1.0;"/><!--MD5=[54fa1b0cd35a6112e25b6549cb87aee2]
reverse link Handler to NotificationHandler--><path d="M2019.15,138.206 C2037.49,176.212 2061.79,226.585 2079.51,263.311 " fill="none" id="Handler&lt;-NotificationHandler" style="stroke: #A80036; stroke-width: 1.0;"/><polygon fill="none" points="2012.82,141.182,2010.43,120.127,2025.43,135.099,2012.82,141.182" style="stroke: #A80036; stroke-width: 1.0;"/><!--MD5=[753506548ce492df9f5d4057b0002e81]
reverse link Handler to GeneralHandler--><path d="M2092.81,129.052 C2136.39,151.017 2186.83,179.679 2228,212 C2246.92,226.858 2265.28,245.85 2280.49,263.282 " fill="none" id="Handler&lt;-GeneralHandler" style="stroke: #A80036; stroke-width: 1.0;"/><polygon fill="none" points="2089.43,135.19,2074.59,120.057,2095.63,122.638,2089.43,135.19" style="stroke: #A80036; stroke-width: 1.0;"/><!--MD5=[5508760d974fe5fa2607262235dd6ea5]
link Log to ConfigHolder--><!--MD5=[51f194e11f98ddb3d0c211adb34c5a57]
link Log to SubscribeRequest--><!--MD5=[bbffbbd7ac5fab462ddda39faae409a4]
link SubscribeRequest to AuthMiddleware--><!--MD5=[4d336ccffd6e17255a51b33e5030e3a2]
@startuml
class Log{
  -module : any
  -maxModuleLength : any
  +info(message: string): void
  +warn(message: string): void
  +error(message: string): void
}

class ConfigHolder{
  +dbHost : string
  +dbUser : string
  +dbPassword : string
  +dbName : string
  +dbPort : number
  +startBackend : boolean
  +port : number
}

class User{
  +_id : string
  +email : string
  +password : string
  +firstName : string
  +lastName : string
}

class mongoose.Document{

}

class Subscription{
  +_id : string
  +userId : string
  +accountName : string
  +app : App
}

class SubscribeRequest{
  +id : string
  +callback : string
  +name : string
  +requestedInfos : string[]
  +fromRequestBody(json: any): SubscribeRequest
}

class Session{
  +id : string
  +userId : string
  -expTs : number
  +MAX_AGE : number
  +create(userId: string): Session
  +findById(id: string): Session | undefined
  +deleteExpired(): void
  +deleteAssociated(userId: string): void
}

class Notification{
  +_id : string
  +userId : string
  +heading : string
  +subscription : Subscription
  +timestamp : number
  +imageUrl : string
  +isDone : any
  +isSilent : boolean
  +isArchived : boolean
  +type : string
  +content : string
  +actions : Array<Action>
}

class App{
  +_id : string
  +name : string
  +imageUrl : string
  +isHidden : boolean
  +baseUrl : string
  +manageUrl : string | undefined
  +cert : string
}

class Action{
  +type : string
  +url : string
  +markAsDone : boolean
  +text : string
}

interface Request{
  +session : Session
}

class AuthMiddleware{
  +auth(): express.Handler
  +daemon(): void
}

class Handler{
  #router : express.Router
  +getRouter(): express.Router
}

class UserHandler{
  -getUser : any
  -putUser : any
  -deleteUser : any
}

class SubscriptionHandler{
  -getApp : any
  -getSubscriptions : any
  -deleteSubscription : any
  -getSubscribeRequest : any
  -postSubscribeRequest : any
}

class SPHandler{
  -postApp : any
  -putApp : any
  -postNotification : any
  -putNotification : any
  -deleteNotification : any
}

class NotificationHandler{
  -getNotifications : any
  -markNotificationsAsDone : any
  -markNotificationsAsUndone : any
  -deleteNotifications : any
}

class GeneralHandler{
  -ping : any
  -login : any
  -register : any
  -forgetPassword : any
}

Subscription - -> App
Notification - -> Subscription
Notification - -> Array
Notification - -> Action
Request - -> Session
Handler - -> express.Router
mongoose.Document <|- - User
mongoose.Document <|- - Subscription
mongoose.Document <|- - Notification
mongoose.Document <|- - App
Handler <|- - UserHandler
Handler <|- - SubscriptionHandler
Handler <|- - SPHandler
Handler <|- - NotificationHandler
Handler <|- - GeneralHandler
@enduml

PlantUML version 1.2019.12(Sun Nov 03 10:24:54 UTC 2019)
(GPL source distribution)
Java Runtime: Java(TM) SE Runtime Environment
JVM: Java HotSpot(TM) 64-Bit Server VM
Java Version: 1.7.0_25-b15
Operating System: Linux
Default Encoding: UTF-8
Language: en
Country: US
--></g></svg>