<?xml version="1.0" encoding="UTF-8" standalone="no"?><svg xmlns="http://www.w3.org/2000/svg" xmlns:xlink="http://www.w3.org/1999/xlink" contentScriptType="application/ecmascript" contentStyleType="text/css" height="890px" preserveAspectRatio="none" style="width:2734px;height:890px;" version="1.1" viewBox="0 0 2734 890" width="2734px" zoomAndPan="magnify"><defs><filter height="300%" id="faqp5bga4g3xl" width="300%" x="-1" y="-1"><feGaussianBlur result="blurOut" stdDeviation="2.0"/><feColorMatrix in="blurOut" result="blurOut2" type="matrix" values="0 0 0 0 0 0 0 0 0 0 0 0 0 0 0 0 0 0 .4 0"/><feOffset dx="4.0" dy="4.0" in="blurOut2" result="blurOut3"/><feBlend in="SourceGraphic" in2="blurOut3" mode="normal"/></filter></defs><g><!--MD5=[5ef22bbd0a1f67a50f73f5041020c54e]
cluster mongoose--><polygon fill="#FFFFFF" filter="url(#faqp5bga4g3xl)" points="2278,50,2367,50,2374,72.2969,2406,72.2969,2406,149,2278,149,2278,50" style="stroke: #000000; stroke-width: 1.5;"/><line style="stroke: #000000; stroke-width: 1.5;" x1="2278" x2="2374" y1="72.2969" y2="72.2969"/><text fill="#000000" font-family="sans-serif" font-size="14" font-weight="bold" lengthAdjust="spacingAndGlyphs" textLength="83" x="2282" y="64.9951">mongoose</text><!--MD5=[a49c2c941ba6021873bafec9daf0cd06]
cluster express--><polygon fill="#FFFFFF" filter="url(#faqp5bga4g3xl)" points="989,312,1059,312,1066,334.2969,1232,334.2969,1232,411,989,411,989,312" style="stroke: #000000; stroke-width: 1.5;"/><line style="stroke: #000000; stroke-width: 1.5;" x1="989" x2="1066" y1="334.2969" y2="334.2969"/><text fill="#000000" font-family="sans-serif" font-size="14" font-weight="bold" lengthAdjust="spacingAndGlyphs" textLength="64" x="993" y="326.9951">express</text><!--MD5=[081a5e829efc359158a0e8a52aaa6274]
class mongoose.Document--><rect fill="#FEFECE" filter="url(#faqp5bga4g3xl)" height="48" id="mongoose.Document" style="stroke: #A80036; stroke-width: 1.5;" width="96" x="2294" y="85"/><ellipse cx="2309" cy="101" fill="#ADD1B2" rx="11" ry="11" style="stroke: #A80036; stroke-width: 1.0;"/><path d="M2311.3438,96.6719 L2311.5156,96.75 C2311.7344,96.4375 2311.9375,96.3438 2312.2344,96.3438 C2312.5313,96.3438 2312.8125,96.4844 2312.9688,96.75 C2313.0625,96.9063 2313.0781,97.0313 2313.0781,97.4688 L2313.0781,98.8906 C2313.0781,99.3125 2313.0469,99.5 2312.9375,99.6563 C2312.7656,99.875 2312.5,100.0156 2312.2344,100.0156 C2312.0156,100.0156 2311.7813,99.9063 2311.6406,99.7656 C2311.5,99.6406 2311.4688,99.5156 2311.4063,99.1094 C2311.3125,98.7031 2311.1406,98.4844 2310.6563,98.2031 C2310.1875,97.9531 2309.5781,97.7969 2309,97.7969 C2307.2656,97.7969 2306.0156,99.1094 2306.0156,100.8906 L2306.0156,101.9844 C2306.0156,103.6875 2307.3125,104.7813 2309.3594,104.7813 C2310.125,104.7813 2310.8125,104.6563 2311.2344,104.3906 C2311.4219,104.2969 2311.4219,104.2969 2311.875,103.8125 C2312.0625,103.625 2312.2656,103.5469 2312.4844,103.5469 C2312.9531,103.5469 2313.3438,103.9375 2313.3438,104.3906 C2313.3438,104.7813 2313.0156,105.2344 2312.4375,105.6406 C2311.6875,106.1875 2310.5313,106.4844 2309.3125,106.4844 C2306.4219,106.4844 2304.3125,104.5938 2304.3125,102.0156 L2304.3125,100.8906 C2304.3125,98.1719 2306.3125,96.0938 2308.9375,96.0938 C2309.8125,96.0938 2310.4063,96.2344 2311.3438,96.6719 Z "/><text fill="#000000" font-family="sans-serif" font-size="12" lengthAdjust="spacingAndGlyphs" textLength="64" x="2323" y="105.1543">Document</text><line style="stroke: #A80036; stroke-width: 1.5;" x1="2295" x2="2389" y1="117" y2="117"/><line style="stroke: #A80036; stroke-width: 1.5;" x1="2295" x2="2389" y1="125" y2="125"/><!--MD5=[974b0fac639f7bff14773e1e7374a55d]
class express.Router--><rect fill="#FEFECE" filter="url(#faqp5bga4g3xl)" height="48" id="express.Router" style="stroke: #A80036; stroke-width: 1.5;" width="74" x="1005" y="347"/><ellipse cx="1020" cy="363" fill="#ADD1B2" rx="11" ry="11" style="stroke: #A80036; stroke-width: 1.0;"/><path d="M1022.3438,358.6719 L1022.5156,358.75 C1022.7344,358.4375 1022.9375,358.3438 1023.2344,358.3438 C1023.5313,358.3438 1023.8125,358.4844 1023.9688,358.75 C1024.0625,358.9063 1024.0781,359.0313 1024.0781,359.4688 L1024.0781,360.8906 C1024.0781,361.3125 1024.0469,361.5 1023.9375,361.6563 C1023.7656,361.875 1023.5,362.0156 1023.2344,362.0156 C1023.0156,362.0156 1022.7813,361.9063 1022.6406,361.7656 C1022.5,361.6406 1022.4688,361.5156 1022.4063,361.1094 C1022.3125,360.7031 1022.1406,360.4844 1021.6563,360.2031 C1021.1875,359.9531 1020.5781,359.7969 1020,359.7969 C1018.2656,359.7969 1017.0156,361.1094 1017.0156,362.8906 L1017.0156,363.9844 C1017.0156,365.6875 1018.3125,366.7813 1020.3594,366.7813 C1021.125,366.7813 1021.8125,366.6563 1022.2344,366.3906 C1022.4219,366.2969 1022.4219,366.2969 1022.875,365.8125 C1023.0625,365.625 1023.2656,365.5469 1023.4844,365.5469 C1023.9531,365.5469 1024.3438,365.9375 1024.3438,366.3906 C1024.3438,366.7813 1024.0156,367.2344 1023.4375,367.6406 C1022.6875,368.1875 1021.5313,368.4844 1020.3125,368.4844 C1017.4219,368.4844 1015.3125,366.5938 1015.3125,364.0156 L1015.3125,362.8906 C1015.3125,360.1719 1017.3125,358.0938 1019.9375,358.0938 C1020.8125,358.0938 1021.4063,358.2344 1022.3438,358.6719 Z "/><text fill="#000000" font-family="sans-serif" font-size="12" lengthAdjust="spacingAndGlyphs" textLength="42" x="1034" y="367.1543">Router</text><line style="stroke: #A80036; stroke-width: 1.5;" x1="1006" x2="1078" y1="379" y2="379"/><line style="stroke: #A80036; stroke-width: 1.5;" x1="1006" x2="1078" y1="387" y2="387"/><!--MD5=[a3c148198b1b626dcfea3d09ab7fa5d2]
class express.Application--><rect fill="#FEFECE" filter="url(#faqp5bga4g3xl)" height="48" id="express.Application" style="stroke: #A80036; stroke-width: 1.5;" width="101" x="1114.5" y="347"/><ellipse cx="1129.5" cy="363" fill="#ADD1B2" rx="11" ry="11" style="stroke: #A80036; stroke-width: 1.0;"/><path d="M1131.8438,358.6719 L1132.0156,358.75 C1132.2344,358.4375 1132.4375,358.3438 1132.7344,358.3438 C1133.0313,358.3438 1133.3125,358.4844 1133.4688,358.75 C1133.5625,358.9063 1133.5781,359.0313 1133.5781,359.4688 L1133.5781,360.8906 C1133.5781,361.3125 1133.5469,361.5 1133.4375,361.6563 C1133.2656,361.875 1133,362.0156 1132.7344,362.0156 C1132.5156,362.0156 1132.2813,361.9063 1132.1406,361.7656 C1132,361.6406 1131.9688,361.5156 1131.9063,361.1094 C1131.8125,360.7031 1131.6406,360.4844 1131.1563,360.2031 C1130.6875,359.9531 1130.0781,359.7969 1129.5,359.7969 C1127.7656,359.7969 1126.5156,361.1094 1126.5156,362.8906 L1126.5156,363.9844 C1126.5156,365.6875 1127.8125,366.7813 1129.8594,366.7813 C1130.625,366.7813 1131.3125,366.6563 1131.7344,366.3906 C1131.9219,366.2969 1131.9219,366.2969 1132.375,365.8125 C1132.5625,365.625 1132.7656,365.5469 1132.9844,365.5469 C1133.4531,365.5469 1133.8438,365.9375 1133.8438,366.3906 C1133.8438,366.7813 1133.5156,367.2344 1132.9375,367.6406 C1132.1875,368.1875 1131.0313,368.4844 1129.8125,368.4844 C1126.9219,368.4844 1124.8125,366.5938 1124.8125,364.0156 L1124.8125,362.8906 C1124.8125,360.1719 1126.8125,358.0938 1129.4375,358.0938 C1130.3125,358.0938 1130.9063,358.2344 1131.8438,358.6719 Z "/><text fill="#000000" font-family="sans-serif" font-size="12" lengthAdjust="spacingAndGlyphs" textLength="69" x="1143.5" y="367.1543">Application</text><line style="stroke: #A80036; stroke-width: 1.5;" x1="1115.5" x2="1214.5" y1="379" y2="379"/><line style="stroke: #A80036; stroke-width: 1.5;" x1="1115.5" x2="1214.5" y1="387" y2="387"/><!--MD5=[063d74e43144aaa0d0cf3aecd3794497]
class Log--><rect fill="#FEFECE" filter="url(#faqp5bga4g3xl)" height="112.0234" id="Log" style="stroke: #A80036; stroke-width: 1.5;" width="188" x="1251" y="315"/><ellipse cx="1329.75" cy="331" fill="#ADD1B2" rx="11" ry="11" style="stroke: #A80036; stroke-width: 1.0;"/><path d="M1332.0938,326.6719 L1332.2656,326.75 C1332.4844,326.4375 1332.6875,326.3438 1332.9844,326.3438 C1333.2813,326.3438 1333.5625,326.4844 1333.7188,326.75 C1333.8125,326.9063 1333.8281,327.0313 1333.8281,327.4688 L1333.8281,328.8906 C1333.8281,329.3125 1333.7969,329.5 1333.6875,329.6563 C1333.5156,329.875 1333.25,330.0156 1332.9844,330.0156 C1332.7656,330.0156 1332.5313,329.9063 1332.3906,329.7656 C1332.25,329.6406 1332.2188,329.5156 1332.1563,329.1094 C1332.0625,328.7031 1331.8906,328.4844 1331.4063,328.2031 C1330.9375,327.9531 1330.3281,327.7969 1329.75,327.7969 C1328.0156,327.7969 1326.7656,329.1094 1326.7656,330.8906 L1326.7656,331.9844 C1326.7656,333.6875 1328.0625,334.7813 1330.1094,334.7813 C1330.875,334.7813 1331.5625,334.6563 1331.9844,334.3906 C1332.1719,334.2969 1332.1719,334.2969 1332.625,333.8125 C1332.8125,333.625 1333.0156,333.5469 1333.2344,333.5469 C1333.7031,333.5469 1334.0938,333.9375 1334.0938,334.3906 C1334.0938,334.7813 1333.7656,335.2344 1333.1875,335.6406 C1332.4375,336.1875 1331.2813,336.4844 1330.0625,336.4844 C1327.1719,336.4844 1325.0625,334.5938 1325.0625,332.0156 L1325.0625,330.8906 C1325.0625,328.1719 1327.0625,326.0938 1329.6875,326.0938 C1330.5625,326.0938 1331.1563,326.2344 1332.0938,326.6719 Z "/><text fill="#000000" font-family="sans-serif" font-size="12" lengthAdjust="spacingAndGlyphs" textLength="22" x="1350.25" y="335.1543">Log</text><line style="stroke: #A80036; stroke-width: 1.5;" x1="1252" x2="1438" y1="347" y2="347"/><rect fill="none" height="6" style="stroke: #C82930; stroke-width: 1.0;" width="6" x="1259" y="355"/><text fill="#000000" font-family="sans-serif" font-size="11" lengthAdjust="spacingAndGlyphs" textLength="74" x="1271" y="361.2104">module : any</text><rect fill="none" height="6" style="stroke: #C82930; stroke-width: 1.0;" width="6" x="1259" y="367.8047"/><text fill="#000000" font-family="sans-serif" font-size="11" lengthAdjust="spacingAndGlyphs" textLength="134" x="1271" y="374.0151">maxModuleLength : any</text><line style="stroke: #A80036; stroke-width: 1.5;" x1="1252" x2="1438" y1="380.6094" y2="380.6094"/><ellipse cx="1262" cy="391.6094" fill="#84BE84" rx="3" ry="3" style="stroke: #038048; stroke-width: 1.0;"/><text fill="#000000" font-family="sans-serif" font-size="11" lengthAdjust="spacingAndGlyphs" textLength="154" x="1271" y="394.8198">info(message: string): void</text><ellipse cx="1262" cy="404.4141" fill="#84BE84" rx="3" ry="3" style="stroke: #038048; stroke-width: 1.0;"/><text fill="#000000" font-family="sans-serif" font-size="11" lengthAdjust="spacingAndGlyphs" textLength="161" x="1271" y="407.6245">warn(message: string): void</text><ellipse cx="1262" cy="417.2188" fill="#84BE84" rx="3" ry="3" style="stroke: #038048; stroke-width: 1.0;"/><text fill="#000000" font-family="sans-serif" font-size="11" lengthAdjust="spacingAndGlyphs" textLength="162" x="1271" y="420.4292">error(message: string): void</text><!--MD5=[cb1d040eb22e4c6da29ba1b4ad49b9c0]
class ConfigHolder--><rect fill="#FEFECE" filter="url(#faqp5bga4g3xl)" height="137.6328" id="ConfigHolder" style="stroke: #A80036; stroke-width: 1.5;" width="158" x="1474" y="302"/><ellipse cx="1509.7" cy="318" fill="#ADD1B2" rx="11" ry="11" style="stroke: #A80036; stroke-width: 1.0;"/><path d="M1512.0438,313.6719 L1512.2156,313.75 C1512.4344,313.4375 1512.6375,313.3438 1512.9344,313.3438 C1513.2313,313.3438 1513.5125,313.4844 1513.6688,313.75 C1513.7625,313.9063 1513.7781,314.0313 1513.7781,314.4688 L1513.7781,315.8906 C1513.7781,316.3125 1513.7469,316.5 1513.6375,316.6563 C1513.4656,316.875 1513.2,317.0156 1512.9344,317.0156 C1512.7156,317.0156 1512.4813,316.9063 1512.3406,316.7656 C1512.2,316.6406 1512.1688,316.5156 1512.1063,316.1094 C1512.0125,315.7031 1511.8406,315.4844 1511.3563,315.2031 C1510.8875,314.9531 1510.2781,314.7969 1509.7,314.7969 C1507.9656,314.7969 1506.7156,316.1094 1506.7156,317.8906 L1506.7156,318.9844 C1506.7156,320.6875 1508.0125,321.7813 1510.0594,321.7813 C1510.825,321.7813 1511.5125,321.6563 1511.9344,321.3906 C1512.1219,321.2969 1512.1219,321.2969 1512.575,320.8125 C1512.7625,320.625 1512.9656,320.5469 1513.1844,320.5469 C1513.6531,320.5469 1514.0438,320.9375 1514.0438,321.3906 C1514.0438,321.7813 1513.7156,322.2344 1513.1375,322.6406 C1512.3875,323.1875 1511.2313,323.4844 1510.0125,323.4844 C1507.1219,323.4844 1505.0125,321.5938 1505.0125,319.0156 L1505.0125,317.8906 C1505.0125,315.1719 1507.0125,313.0938 1509.6375,313.0938 C1510.5125,313.0938 1511.1063,313.2344 1512.0438,313.6719 Z "/><text fill="#000000" font-family="sans-serif" font-size="12" lengthAdjust="spacingAndGlyphs" textLength="80" x="1528.3" y="322.1543">ConfigHolder</text><line style="stroke: #A80036; stroke-width: 1.5;" x1="1475" x2="1631" y1="334" y2="334"/><ellipse cx="1485" cy="345" fill="none" rx="3" ry="3" style="stroke: #038048; stroke-width: 1.0;"/><text fill="#000000" font-family="sans-serif" font-size="11" lengthAdjust="spacingAndGlyphs" textLength="85" x="1494" y="348.2104">dbHost : string</text><ellipse cx="1485" cy="357.8047" fill="none" rx="3" ry="3" style="stroke: #038048; stroke-width: 1.0;"/><text fill="#000000" font-family="sans-serif" font-size="11" lengthAdjust="spacingAndGlyphs" textLength="86" x="1494" y="361.0151">dbUser : string</text><ellipse cx="1485" cy="370.6094" fill="none" rx="3" ry="3" style="stroke: #038048; stroke-width: 1.0;"/><text fill="#000000" font-family="sans-serif" font-size="11" lengthAdjust="spacingAndGlyphs" textLength="115" x="1494" y="373.8198">dbPassword : string</text><ellipse cx="1485" cy="383.4141" fill="none" rx="3" ry="3" style="stroke: #038048; stroke-width: 1.0;"/><text fill="#000000" font-family="sans-serif" font-size="11" lengthAdjust="spacingAndGlyphs" textLength="92" x="1494" y="386.6245">dbName : string</text><ellipse cx="1485" cy="396.2188" fill="none" rx="3" ry="3" style="stroke: #038048; stroke-width: 1.0;"/><text fill="#000000" font-family="sans-serif" font-size="11" lengthAdjust="spacingAndGlyphs" textLength="93" x="1494" y="399.4292">dbPort : number</text><ellipse cx="1485" cy="409.0234" fill="none" rx="3" ry="3" style="stroke: #038048; stroke-width: 1.0;"/><text fill="#000000" font-family="sans-serif" font-size="11" lengthAdjust="spacingAndGlyphs" textLength="132" x="1494" y="412.2339">startBackend : boolean</text><ellipse cx="1485" cy="421.8281" fill="none" rx="3" ry="3" style="stroke: #038048; stroke-width: 1.0;"/><text fill="#000000" font-family="sans-serif" font-size="11" lengthAdjust="spacingAndGlyphs" textLength="79" x="1494" y="425.0386">port : number</text><line style="stroke: #A80036; stroke-width: 1.5;" x1="1475" x2="1631" y1="431.6328" y2="431.6328"/><!--MD5=[3fd616f346a44cd59a91eb10b19e157c]
class User--><rect fill="#FEFECE" filter="url(#faqp5bga4g3xl)" height="112.0234" id="User" style="stroke: #A80036; stroke-width: 1.5;" width="127" x="2337.5" y="315"/><ellipse cx="2382.25" cy="331" fill="#ADD1B2" rx="11" ry="11" style="stroke: #A80036; stroke-width: 1.0;"/><path d="M2384.5938,326.6719 L2384.7656,326.75 C2384.9844,326.4375 2385.1875,326.3438 2385.4844,326.3438 C2385.7813,326.3438 2386.0625,326.4844 2386.2188,326.75 C2386.3125,326.9063 2386.3281,327.0313 2386.3281,327.4688 L2386.3281,328.8906 C2386.3281,329.3125 2386.2969,329.5 2386.1875,329.6563 C2386.0156,329.875 2385.75,330.0156 2385.4844,330.0156 C2385.2656,330.0156 2385.0313,329.9063 2384.8906,329.7656 C2384.75,329.6406 2384.7188,329.5156 2384.6563,329.1094 C2384.5625,328.7031 2384.3906,328.4844 2383.9063,328.2031 C2383.4375,327.9531 2382.8281,327.7969 2382.25,327.7969 C2380.5156,327.7969 2379.2656,329.1094 2379.2656,330.8906 L2379.2656,331.9844 C2379.2656,333.6875 2380.5625,334.7813 2382.6094,334.7813 C2383.375,334.7813 2384.0625,334.6563 2384.4844,334.3906 C2384.6719,334.2969 2384.6719,334.2969 2385.125,333.8125 C2385.3125,333.625 2385.5156,333.5469 2385.7344,333.5469 C2386.2031,333.5469 2386.5938,333.9375 2386.5938,334.3906 C2386.5938,334.7813 2386.2656,335.2344 2385.6875,335.6406 C2384.9375,336.1875 2383.7813,336.4844 2382.5625,336.4844 C2379.6719,336.4844 2377.5625,334.5938 2377.5625,332.0156 L2377.5625,330.8906 C2377.5625,328.1719 2379.5625,326.0938 2382.1875,326.0938 C2383.0625,326.0938 2383.6563,326.2344 2384.5938,326.6719 Z "/><text fill="#000000" font-family="sans-serif" font-size="12" lengthAdjust="spacingAndGlyphs" textLength="29" x="2402.75" y="335.1543">User</text><line style="stroke: #A80036; stroke-width: 1.5;" x1="2338.5" x2="2463.5" y1="347" y2="347"/><ellipse cx="2348.5" cy="358" fill="none" rx="3" ry="3" style="stroke: #038048; stroke-width: 1.0;"/><text fill="#000000" font-family="sans-serif" font-size="11" lengthAdjust="spacingAndGlyphs" textLength="61" x="2357.5" y="361.2104">_id : string</text><ellipse cx="2348.5" cy="370.8047" fill="none" rx="3" ry="3" style="stroke: #038048; stroke-width: 1.0;"/><text fill="#000000" font-family="sans-serif" font-size="11" lengthAdjust="spacingAndGlyphs" textLength="76" x="2357.5" y="374.0151">email : string</text><ellipse cx="2348.5" cy="383.6094" fill="none" rx="3" ry="3" style="stroke: #038048; stroke-width: 1.0;"/><text fill="#000000" font-family="sans-serif" font-size="11" lengthAdjust="spacingAndGlyphs" textLength="101" x="2357.5" y="386.8198">password : string</text><ellipse cx="2348.5" cy="396.4141" fill="none" rx="3" ry="3" style="stroke: #038048; stroke-width: 1.0;"/><text fill="#000000" font-family="sans-serif" font-size="11" lengthAdjust="spacingAndGlyphs" textLength="101" x="2357.5" y="399.6245">firstName : string</text><ellipse cx="2348.5" cy="409.2188" fill="none" rx="3" ry="3" style="stroke: #038048; stroke-width: 1.0;"/><text fill="#000000" font-family="sans-serif" font-size="11" lengthAdjust="spacingAndGlyphs" textLength="99" x="2357.5" y="412.4292">lastName : string</text><line style="stroke: #A80036; stroke-width: 1.5;" x1="2338.5" x2="2463.5" y1="419.0234" y2="419.0234"/><!--MD5=[545507b7baa8aade59e57dce916f0187]
class Subscription--><rect fill="#FEFECE" filter="url(#faqp5bga4g3xl)" height="99.2188" id="Subscription" style="stroke: #A80036; stroke-width: 1.5;" width="148" x="2232" y="557.5"/><ellipse cx="2264.1" cy="573.5" fill="#ADD1B2" rx="11" ry="11" style="stroke: #A80036; stroke-width: 1.0;"/><path d="M2266.4438,569.1719 L2266.6156,569.25 C2266.8344,568.9375 2267.0375,568.8438 2267.3344,568.8438 C2267.6313,568.8438 2267.9125,568.9844 2268.0688,569.25 C2268.1625,569.4063 2268.1781,569.5313 2268.1781,569.9688 L2268.1781,571.3906 C2268.1781,571.8125 2268.1469,572 2268.0375,572.1563 C2267.8656,572.375 2267.6,572.5156 2267.3344,572.5156 C2267.1156,572.5156 2266.8813,572.4063 2266.7406,572.2656 C2266.6,572.1406 2266.5688,572.0156 2266.5063,571.6094 C2266.4125,571.2031 2266.2406,570.9844 2265.7563,570.7031 C2265.2875,570.4531 2264.6781,570.2969 2264.1,570.2969 C2262.3656,570.2969 2261.1156,571.6094 2261.1156,573.3906 L2261.1156,574.4844 C2261.1156,576.1875 2262.4125,577.2813 2264.4594,577.2813 C2265.225,577.2813 2265.9125,577.1563 2266.3344,576.8906 C2266.5219,576.7969 2266.5219,576.7969 2266.975,576.3125 C2267.1625,576.125 2267.3656,576.0469 2267.5844,576.0469 C2268.0531,576.0469 2268.4438,576.4375 2268.4438,576.8906 C2268.4438,577.2813 2268.1156,577.7344 2267.5375,578.1406 C2266.7875,578.6875 2265.6313,578.9844 2264.4125,578.9844 C2261.5219,578.9844 2259.4125,577.0938 2259.4125,574.5156 L2259.4125,573.3906 C2259.4125,570.6719 2261.4125,568.5938 2264.0375,568.5938 C2264.9125,568.5938 2265.5063,568.7344 2266.4438,569.1719 Z "/><text fill="#000000" font-family="sans-serif" font-size="12" lengthAdjust="spacingAndGlyphs" textLength="78" x="2281.9" y="577.6543">Subscription</text><line style="stroke: #A80036; stroke-width: 1.5;" x1="2233" x2="2379" y1="589.5" y2="589.5"/><ellipse cx="2243" cy="600.5" fill="none" rx="3" ry="3" style="stroke: #038048; stroke-width: 1.0;"/><text fill="#000000" font-family="sans-serif" font-size="11" lengthAdjust="spacingAndGlyphs" textLength="61" x="2252" y="603.7104">_id : string</text><ellipse cx="2243" cy="613.3047" fill="none" rx="3" ry="3" style="stroke: #038048; stroke-width: 1.0;"/><text fill="#000000" font-family="sans-serif" font-size="11" lengthAdjust="spacingAndGlyphs" textLength="81" x="2252" y="616.5151">userId : string</text><ellipse cx="2243" cy="626.1094" fill="none" rx="3" ry="3" style="stroke: #038048; stroke-width: 1.0;"/><text fill="#000000" font-family="sans-serif" font-size="11" lengthAdjust="spacingAndGlyphs" textLength="122" x="2252" y="629.3198">accountName : string</text><ellipse cx="2243" cy="638.9141" fill="none" rx="3" ry="3" style="stroke: #038048; stroke-width: 1.0;"/><text fill="#000000" font-family="sans-serif" font-size="11" lengthAdjust="spacingAndGlyphs" textLength="54" x="2252" y="642.1245">app : App</text><line style="stroke: #A80036; stroke-width: 1.5;" x1="2233" x2="2379" y1="648.7188" y2="648.7188"/><!--MD5=[0aeed08ddef30626048d837b7fbd8ab5]
class SubscribeRequest--><rect fill="#FEFECE" filter="url(#faqp5bga4g3xl)" height="112.0234" id="SubscribeRequest" style="stroke: #A80036; stroke-width: 1.5;" width="298" x="2425" y="53"/><ellipse cx="2512.75" cy="69" fill="#ADD1B2" rx="11" ry="11" style="stroke: #A80036; stroke-width: 1.0;"/><path d="M2515.0938,64.6719 L2515.2656,64.75 C2515.4844,64.4375 2515.6875,64.3438 2515.9844,64.3438 C2516.2813,64.3438 2516.5625,64.4844 2516.7188,64.75 C2516.8125,64.9063 2516.8281,65.0313 2516.8281,65.4688 L2516.8281,66.8906 C2516.8281,67.3125 2516.7969,67.5 2516.6875,67.6563 C2516.5156,67.875 2516.25,68.0156 2515.9844,68.0156 C2515.7656,68.0156 2515.5313,67.9063 2515.3906,67.7656 C2515.25,67.6406 2515.2188,67.5156 2515.1563,67.1094 C2515.0625,66.7031 2514.8906,66.4844 2514.4063,66.2031 C2513.9375,65.9531 2513.3281,65.7969 2512.75,65.7969 C2511.0156,65.7969 2509.7656,67.1094 2509.7656,68.8906 L2509.7656,69.9844 C2509.7656,71.6875 2511.0625,72.7813 2513.1094,72.7813 C2513.875,72.7813 2514.5625,72.6563 2514.9844,72.3906 C2515.1719,72.2969 2515.1719,72.2969 2515.625,71.8125 C2515.8125,71.625 2516.0156,71.5469 2516.2344,71.5469 C2516.7031,71.5469 2517.0938,71.9375 2517.0938,72.3906 C2517.0938,72.7813 2516.7656,73.2344 2516.1875,73.6406 C2515.4375,74.1875 2514.2813,74.4844 2513.0625,74.4844 C2510.1719,74.4844 2508.0625,72.5938 2508.0625,70.0156 L2508.0625,68.8906 C2508.0625,66.1719 2510.0625,64.0938 2512.6875,64.0938 C2513.5625,64.0938 2514.1563,64.2344 2515.0938,64.6719 Z "/><text fill="#000000" font-family="sans-serif" font-size="12" lengthAdjust="spacingAndGlyphs" textLength="114" x="2533.25" y="73.1543">SubscribeRequest</text><line style="stroke: #A80036; stroke-width: 1.5;" x1="2426" x2="2722" y1="85" y2="85"/><ellipse cx="2436" cy="96" fill="none" rx="3" ry="3" style="stroke: #038048; stroke-width: 1.0;"/><text fill="#000000" font-family="sans-serif" font-size="11" lengthAdjust="spacingAndGlyphs" textLength="55" x="2445" y="99.2104">id : string</text><ellipse cx="2436" cy="108.8047" fill="none" rx="3" ry="3" style="stroke: #038048; stroke-width: 1.0;"/><text fill="#000000" font-family="sans-serif" font-size="11" lengthAdjust="spacingAndGlyphs" textLength="90" x="2445" y="112.0151">callback : string</text><ellipse cx="2436" cy="121.6094" fill="none" rx="3" ry="3" style="stroke: #038048; stroke-width: 1.0;"/><text fill="#000000" font-family="sans-serif" font-size="11" lengthAdjust="spacingAndGlyphs" textLength="77" x="2445" y="124.8198">name : string</text><ellipse cx="2436" cy="134.4141" fill="none" rx="3" ry="3" style="stroke: #038048; stroke-width: 1.0;"/><text fill="#000000" font-family="sans-serif" font-size="11" lengthAdjust="spacingAndGlyphs" textLength="139" x="2445" y="137.6245">requestedInfos : string[]</text><line style="stroke: #A80036; stroke-width: 1.5;" x1="2426" x2="2722" y1="144.2188" y2="144.2188"/><ellipse cx="2436" cy="155.2188" fill="#84BE84" rx="3" ry="3" style="stroke: #038048; stroke-width: 1.0;"/><text fill="#000000" font-family="sans-serif" font-size="11" lengthAdjust="spacingAndGlyphs" textLength="272" x="2445" y="158.4292">fromRequestBody(json: any): SubscribeRequest</text><!--MD5=[2ca1536628238a7dc78c5d90808014f9]
class Session--><rect fill="#FEFECE" filter="url(#faqp5bga4g3xl)" height="150.4375" id="Session" style="stroke: #A80036; stroke-width: 1.5;" width="252" x="1635" y="532"/><ellipse cx="1732.25" cy="548" fill="#ADD1B2" rx="11" ry="11" style="stroke: #A80036; stroke-width: 1.0;"/><path d="M1734.5938,543.6719 L1734.7656,543.75 C1734.9844,543.4375 1735.1875,543.3438 1735.4844,543.3438 C1735.7813,543.3438 1736.0625,543.4844 1736.2188,543.75 C1736.3125,543.9063 1736.3281,544.0313 1736.3281,544.4688 L1736.3281,545.8906 C1736.3281,546.3125 1736.2969,546.5 1736.1875,546.6563 C1736.0156,546.875 1735.75,547.0156 1735.4844,547.0156 C1735.2656,547.0156 1735.0313,546.9063 1734.8906,546.7656 C1734.75,546.6406 1734.7188,546.5156 1734.6563,546.1094 C1734.5625,545.7031 1734.3906,545.4844 1733.9063,545.2031 C1733.4375,544.9531 1732.8281,544.7969 1732.25,544.7969 C1730.5156,544.7969 1729.2656,546.1094 1729.2656,547.8906 L1729.2656,548.9844 C1729.2656,550.6875 1730.5625,551.7813 1732.6094,551.7813 C1733.375,551.7813 1734.0625,551.6563 1734.4844,551.3906 C1734.6719,551.2969 1734.6719,551.2969 1735.125,550.8125 C1735.3125,550.625 1735.5156,550.5469 1735.7344,550.5469 C1736.2031,550.5469 1736.5938,550.9375 1736.5938,551.3906 C1736.5938,551.7813 1736.2656,552.2344 1735.6875,552.6406 C1734.9375,553.1875 1733.7813,553.4844 1732.5625,553.4844 C1729.6719,553.4844 1727.5625,551.5938 1727.5625,549.0156 L1727.5625,547.8906 C1727.5625,545.1719 1729.5625,543.0938 1732.1875,543.0938 C1733.0625,543.0938 1733.6563,543.2344 1734.5938,543.6719 Z "/><text fill="#000000" font-family="sans-serif" font-size="12" lengthAdjust="spacingAndGlyphs" textLength="49" x="1752.75" y="552.1543">Session</text><line style="stroke: #A80036; stroke-width: 1.5;" x1="1636" x2="1886" y1="564" y2="564"/><ellipse cx="1646" cy="575" fill="none" rx="3" ry="3" style="stroke: #038048; stroke-width: 1.0;"/><text fill="#000000" font-family="sans-serif" font-size="11" lengthAdjust="spacingAndGlyphs" textLength="55" x="1655" y="578.2104">id : string</text><ellipse cx="1646" cy="587.8047" fill="none" rx="3" ry="3" style="stroke: #038048; stroke-width: 1.0;"/><text fill="#000000" font-family="sans-serif" font-size="11" lengthAdjust="spacingAndGlyphs" textLength="81" x="1655" y="591.0151">userId : string</text><rect fill="none" height="6" style="stroke: #C82930; stroke-width: 1.0;" width="6" x="1643" y="597.6094"/><text fill="#000000" font-family="sans-serif" font-size="11" lengthAdjust="spacingAndGlyphs" textLength="90" x="1655" y="603.8198">expTs : number</text><ellipse cx="1646" cy="613.4141" fill="none" rx="3" ry="3" style="stroke: #038048; stroke-width: 1.0;"/><text fill="#000000" font-family="sans-serif" font-size="11" lengthAdjust="spacingAndGlyphs" textLength="108" x="1655" y="616.6245">MAX_AGE : number</text><line style="stroke: #A80036; stroke-width: 1.5;" x1="1636" x2="1886" y1="623.2188" y2="623.2188"/><ellipse cx="1646" cy="634.2188" fill="#84BE84" rx="3" ry="3" style="stroke: #038048; stroke-width: 1.0;"/><text fill="#000000" font-family="sans-serif" font-size="11" lengthAdjust="spacingAndGlyphs" textLength="175" x="1655" y="637.4292">create(userId: string): Session</text><ellipse cx="1646" cy="647.0234" fill="#84BE84" rx="3" ry="3" style="stroke: #038048; stroke-width: 1.0;"/><text fill="#000000" font-family="sans-serif" font-size="11" lengthAdjust="spacingAndGlyphs" textLength="226" x="1655" y="650.2339">findById(id: string): Session | undefined</text><ellipse cx="1646" cy="659.8281" fill="#84BE84" rx="3" ry="3" style="stroke: #038048; stroke-width: 1.0;"/><text fill="#000000" font-family="sans-serif" font-size="11" lengthAdjust="spacingAndGlyphs" textLength="116" x="1655" y="663.0386">deleteExpired(): void</text><ellipse cx="1646" cy="672.6328" fill="#84BE84" rx="3" ry="3" style="stroke: #038048; stroke-width: 1.0;"/><text fill="#000000" font-family="sans-serif" font-size="11" lengthAdjust="spacingAndGlyphs" textLength="213" x="1655" y="675.8433">deleteAssociated(userId: string): void</text><!--MD5=[76b5e19c9337179d2d7ae334371d68c8]
class Notification--><rect fill="#FEFECE" filter="url(#faqp5bga4g3xl)" height="201.6563" id="Notification" style="stroke: #A80036; stroke-width: 1.5;" width="179" x="2051.5" y="270"/><ellipse cx="2101.25" cy="286" fill="#ADD1B2" rx="11" ry="11" style="stroke: #A80036; stroke-width: 1.0;"/><path d="M2103.5938,281.6719 L2103.7656,281.75 C2103.9844,281.4375 2104.1875,281.3438 2104.4844,281.3438 C2104.7813,281.3438 2105.0625,281.4844 2105.2188,281.75 C2105.3125,281.9063 2105.3281,282.0313 2105.3281,282.4688 L2105.3281,283.8906 C2105.3281,284.3125 2105.2969,284.5 2105.1875,284.6563 C2105.0156,284.875 2104.75,285.0156 2104.4844,285.0156 C2104.2656,285.0156 2104.0313,284.9063 2103.8906,284.7656 C2103.75,284.6406 2103.7188,284.5156 2103.6563,284.1094 C2103.5625,283.7031 2103.3906,283.4844 2102.9063,283.2031 C2102.4375,282.9531 2101.8281,282.7969 2101.25,282.7969 C2099.5156,282.7969 2098.2656,284.1094 2098.2656,285.8906 L2098.2656,286.9844 C2098.2656,288.6875 2099.5625,289.7813 2101.6094,289.7813 C2102.375,289.7813 2103.0625,289.6563 2103.4844,289.3906 C2103.6719,289.2969 2103.6719,289.2969 2104.125,288.8125 C2104.3125,288.625 2104.5156,288.5469 2104.7344,288.5469 C2105.2031,288.5469 2105.5938,288.9375 2105.5938,289.3906 C2105.5938,289.7813 2105.2656,290.2344 2104.6875,290.6406 C2103.9375,291.1875 2102.7813,291.4844 2101.5625,291.4844 C2098.6719,291.4844 2096.5625,289.5938 2096.5625,287.0156 L2096.5625,285.8906 C2096.5625,283.1719 2098.5625,281.0938 2101.1875,281.0938 C2102.0625,281.0938 2102.6563,281.2344 2103.5938,281.6719 Z "/><text fill="#000000" font-family="sans-serif" font-size="12" lengthAdjust="spacingAndGlyphs" textLength="71" x="2121.75" y="290.1543">Notification</text><line style="stroke: #A80036; stroke-width: 1.5;" x1="2052.5" x2="2229.5" y1="302" y2="302"/><ellipse cx="2062.5" cy="313" fill="none" rx="3" ry="3" style="stroke: #038048; stroke-width: 1.0;"/><text fill="#000000" font-family="sans-serif" font-size="11" lengthAdjust="spacingAndGlyphs" textLength="61" x="2071.5" y="316.2104">_id : string</text><ellipse cx="2062.5" cy="325.8047" fill="none" rx="3" ry="3" style="stroke: #038048; stroke-width: 1.0;"/><text fill="#000000" font-family="sans-serif" font-size="11" lengthAdjust="spacingAndGlyphs" textLength="81" x="2071.5" y="329.0151">userId : string</text><ellipse cx="2062.5" cy="338.6094" fill="none" rx="3" ry="3" style="stroke: #038048; stroke-width: 1.0;"/><text fill="#000000" font-family="sans-serif" font-size="11" lengthAdjust="spacingAndGlyphs" textLength="90" x="2071.5" y="341.8198">heading : string</text><ellipse cx="2062.5" cy="351.4141" fill="none" rx="3" ry="3" style="stroke: #038048; stroke-width: 1.0;"/><text fill="#000000" font-family="sans-serif" font-size="11" lengthAdjust="spacingAndGlyphs" textLength="153" x="2071.5" y="354.6245">subscription : Subscription</text><ellipse cx="2062.5" cy="364.2188" fill="none" rx="3" ry="3" style="stroke: #038048; stroke-width: 1.0;"/><text fill="#000000" font-family="sans-serif" font-size="11" lengthAdjust="spacingAndGlyphs" textLength="117" x="2071.5" y="367.4292">timestamp : number</text><ellipse cx="2062.5" cy="377.0234" fill="none" rx="3" ry="3" style="stroke: #038048; stroke-width: 1.0;"/><text fill="#000000" font-family="sans-serif" font-size="11" lengthAdjust="spacingAndGlyphs" textLength="96" x="2071.5" y="380.2339">imageUrl : string</text><ellipse cx="2062.5" cy="389.8281" fill="none" rx="3" ry="3" style="stroke: #038048; stroke-width: 1.0;"/><text fill="#000000" font-family="sans-serif" font-size="11" lengthAdjust="spacingAndGlyphs" textLength="71" x="2071.5" y="393.0386">isDone : any</text><ellipse cx="2062.5" cy="402.6328" fill="none" rx="3" ry="3" style="stroke: #038048; stroke-width: 1.0;"/><text fill="#000000" font-family="sans-serif" font-size="11" lengthAdjust="spacingAndGlyphs" textLength="99" x="2071.5" y="405.8433">isSilent : boolean</text><ellipse cx="2062.5" cy="415.4375" fill="none" rx="3" ry="3" style="stroke: #038048; stroke-width: 1.0;"/><text fill="#000000" font-family="sans-serif" font-size="11" lengthAdjust="spacingAndGlyphs" textLength="115" x="2071.5" y="418.6479">isArchived : boolean</text><ellipse cx="2062.5" cy="428.2422" fill="none" rx="3" ry="3" style="stroke: #038048; stroke-width: 1.0;"/><text fill="#000000" font-family="sans-serif" font-size="11" lengthAdjust="spacingAndGlyphs" textLength="69" x="2071.5" y="431.4526">type : string</text><ellipse cx="2062.5" cy="441.0469" fill="none" rx="3" ry="3" style="stroke: #038048; stroke-width: 1.0;"/><text fill="#000000" font-family="sans-serif" font-size="11" lengthAdjust="spacingAndGlyphs" textLength="87" x="2071.5" y="444.2573">content : string</text><ellipse cx="2062.5" cy="453.8516" fill="none" rx="3" ry="3" style="stroke: #038048; stroke-width: 1.0;"/><text fill="#000000" font-family="sans-serif" font-size="11" lengthAdjust="spacingAndGlyphs" textLength="135" x="2071.5" y="457.062">actions : Array&lt;Action&gt;</text><line style="stroke: #A80036; stroke-width: 1.5;" x1="2052.5" x2="2229.5" y1="463.6563" y2="463.6563"/><!--MD5=[335f4d9be48430461c68bf6d6fdba145]
class App--><rect fill="#FEFECE" filter="url(#faqp5bga4g3xl)" height="137.6328" id="App" style="stroke: #A80036; stroke-width: 1.5;" width="201" x="2322.5" y="742"/><ellipse cx="2406.75" cy="758" fill="#ADD1B2" rx="11" ry="11" style="stroke: #A80036; stroke-width: 1.0;"/><path d="M2409.0938,753.6719 L2409.2656,753.75 C2409.4844,753.4375 2409.6875,753.3438 2409.9844,753.3438 C2410.2813,753.3438 2410.5625,753.4844 2410.7188,753.75 C2410.8125,753.9063 2410.8281,754.0313 2410.8281,754.4688 L2410.8281,755.8906 C2410.8281,756.3125 2410.7969,756.5 2410.6875,756.6563 C2410.5156,756.875 2410.25,757.0156 2409.9844,757.0156 C2409.7656,757.0156 2409.5313,756.9063 2409.3906,756.7656 C2409.25,756.6406 2409.2188,756.5156 2409.1563,756.1094 C2409.0625,755.7031 2408.8906,755.4844 2408.4063,755.2031 C2407.9375,754.9531 2407.3281,754.7969 2406.75,754.7969 C2405.0156,754.7969 2403.7656,756.1094 2403.7656,757.8906 L2403.7656,758.9844 C2403.7656,760.6875 2405.0625,761.7813 2407.1094,761.7813 C2407.875,761.7813 2408.5625,761.6563 2408.9844,761.3906 C2409.1719,761.2969 2409.1719,761.2969 2409.625,760.8125 C2409.8125,760.625 2410.0156,760.5469 2410.2344,760.5469 C2410.7031,760.5469 2411.0938,760.9375 2411.0938,761.3906 C2411.0938,761.7813 2410.7656,762.2344 2410.1875,762.6406 C2409.4375,763.1875 2408.2813,763.4844 2407.0625,763.4844 C2404.1719,763.4844 2402.0625,761.5938 2402.0625,759.0156 L2402.0625,757.8906 C2402.0625,755.1719 2404.0625,753.0938 2406.6875,753.0938 C2407.5625,753.0938 2408.1563,753.2344 2409.0938,753.6719 Z "/><text fill="#000000" font-family="sans-serif" font-size="12" lengthAdjust="spacingAndGlyphs" textLength="24" x="2427.25" y="762.1543">App</text><line style="stroke: #A80036; stroke-width: 1.5;" x1="2323.5" x2="2522.5" y1="774" y2="774"/><ellipse cx="2333.5" cy="785" fill="none" rx="3" ry="3" style="stroke: #038048; stroke-width: 1.0;"/><text fill="#000000" font-family="sans-serif" font-size="11" lengthAdjust="spacingAndGlyphs" textLength="61" x="2342.5" y="788.2104">_id : string</text><ellipse cx="2333.5" cy="797.8047" fill="none" rx="3" ry="3" style="stroke: #038048; stroke-width: 1.0;"/><text fill="#000000" font-family="sans-serif" font-size="11" lengthAdjust="spacingAndGlyphs" textLength="77" x="2342.5" y="801.0151">name : string</text><ellipse cx="2333.5" cy="810.6094" fill="none" rx="3" ry="3" style="stroke: #038048; stroke-width: 1.0;"/><text fill="#000000" font-family="sans-serif" font-size="11" lengthAdjust="spacingAndGlyphs" textLength="96" x="2342.5" y="813.8198">imageUrl : string</text><ellipse cx="2333.5" cy="823.4141" fill="none" rx="3" ry="3" style="stroke: #038048; stroke-width: 1.0;"/><text fill="#000000" font-family="sans-serif" font-size="11" lengthAdjust="spacingAndGlyphs" textLength="106" x="2342.5" y="826.6245">isHidden : boolean</text><ellipse cx="2333.5" cy="836.2188" fill="none" rx="3" ry="3" style="stroke: #038048; stroke-width: 1.0;"/><text fill="#000000" font-family="sans-serif" font-size="11" lengthAdjust="spacingAndGlyphs" textLength="89" x="2342.5" y="839.4292">baseUrl : string</text><ellipse cx="2333.5" cy="849.0234" fill="none" rx="3" ry="3" style="stroke: #038048; stroke-width: 1.0;"/><text fill="#000000" font-family="sans-serif" font-size="11" lengthAdjust="spacingAndGlyphs" textLength="175" x="2342.5" y="852.2339">manageUrl : string | undefined</text><ellipse cx="2333.5" cy="861.8281" fill="none" rx="3" ry="3" style="stroke: #038048; stroke-width: 1.0;"/><text fill="#000000" font-family="sans-serif" font-size="11" lengthAdjust="spacingAndGlyphs" textLength="67" x="2342.5" y="865.0386">cert : string</text><line style="stroke: #A80036; stroke-width: 1.5;" x1="2323.5" x2="2522.5" y1="871.6328" y2="871.6328"/><!--MD5=[f8e7078f77c005d15b486c0c98deb1e6]
class Action--><rect fill="#FEFECE" filter="url(#faqp5bga4g3xl)" height="99.2188" id="Action" style="stroke: #A80036; stroke-width: 1.5;" width="155" x="2041.5" y="557.5"/><ellipse cx="2095.25" cy="573.5" fill="#ADD1B2" rx="11" ry="11" style="stroke: #A80036; stroke-width: 1.0;"/><path d="M2097.5938,569.1719 L2097.7656,569.25 C2097.9844,568.9375 2098.1875,568.8438 2098.4844,568.8438 C2098.7813,568.8438 2099.0625,568.9844 2099.2188,569.25 C2099.3125,569.4063 2099.3281,569.5313 2099.3281,569.9688 L2099.3281,571.3906 C2099.3281,571.8125 2099.2969,572 2099.1875,572.1563 C2099.0156,572.375 2098.75,572.5156 2098.4844,572.5156 C2098.2656,572.5156 2098.0313,572.4063 2097.8906,572.2656 C2097.75,572.1406 2097.7188,572.0156 2097.6563,571.6094 C2097.5625,571.2031 2097.3906,570.9844 2096.9063,570.7031 C2096.4375,570.4531 2095.8281,570.2969 2095.25,570.2969 C2093.5156,570.2969 2092.2656,571.6094 2092.2656,573.3906 L2092.2656,574.4844 C2092.2656,576.1875 2093.5625,577.2813 2095.6094,577.2813 C2096.375,577.2813 2097.0625,577.1563 2097.4844,576.8906 C2097.6719,576.7969 2097.6719,576.7969 2098.125,576.3125 C2098.3125,576.125 2098.5156,576.0469 2098.7344,576.0469 C2099.2031,576.0469 2099.5938,576.4375 2099.5938,576.8906 C2099.5938,577.2813 2099.2656,577.7344 2098.6875,578.1406 C2097.9375,578.6875 2096.7813,578.9844 2095.5625,578.9844 C2092.6719,578.9844 2090.5625,577.0938 2090.5625,574.5156 L2090.5625,573.3906 C2090.5625,570.6719 2092.5625,568.5938 2095.1875,568.5938 C2096.0625,568.5938 2096.6563,568.7344 2097.5938,569.1719 Z "/><text fill="#000000" font-family="sans-serif" font-size="12" lengthAdjust="spacingAndGlyphs" textLength="39" x="2115.75" y="577.6543">Action</text><line style="stroke: #A80036; stroke-width: 1.5;" x1="2042.5" x2="2195.5" y1="589.5" y2="589.5"/><ellipse cx="2052.5" cy="600.5" fill="none" rx="3" ry="3" style="stroke: #038048; stroke-width: 1.0;"/><text fill="#000000" font-family="sans-serif" font-size="11" lengthAdjust="spacingAndGlyphs" textLength="69" x="2061.5" y="603.7104">type : string</text><ellipse cx="2052.5" cy="613.3047" fill="none" rx="3" ry="3" style="stroke: #038048; stroke-width: 1.0;"/><text fill="#000000" font-family="sans-serif" font-size="11" lengthAdjust="spacingAndGlyphs" textLength="60" x="2061.5" y="616.5151">url : string</text><ellipse cx="2052.5" cy="626.1094" fill="none" rx="3" ry="3" style="stroke: #038048; stroke-width: 1.0;"/><text fill="#000000" font-family="sans-serif" font-size="11" lengthAdjust="spacingAndGlyphs" textLength="129" x="2061.5" y="629.3198">markAsDone : boolean</text><ellipse cx="2052.5" cy="638.9141" fill="none" rx="3" ry="3" style="stroke: #038048; stroke-width: 1.0;"/><text fill="#000000" font-family="sans-serif" font-size="11" lengthAdjust="spacingAndGlyphs" textLength="66" x="2061.5" y="642.1245">text : string</text><line style="stroke: #A80036; stroke-width: 1.5;" x1="2042.5" x2="2195.5" y1="648.7188" y2="648.7188"/><!--MD5=[0851f84a889f989e7bb0bebc385d0f09]
class Request--><rect fill="#FEFECE" filter="url(#faqp5bga4g3xl)" height="60.8047" id="Request" style="stroke: #A80036; stroke-width: 1.5;" width="129" x="1667.5" y="340.5"/><ellipse cx="1703.2" cy="356.5" fill="#B4A7E5" rx="11" ry="11" style="stroke: #A80036; stroke-width: 1.0;"/><path d="M1704.1531,353.2813 L1704.1531,359.7969 L1705.8719,359.7969 C1706.325,359.7969 1706.4656,359.8281 1706.6375,359.9531 C1706.8719,360.125 1706.9813,360.375 1706.9813,360.6563 C1706.9813,361.2188 1706.6219,361.5 1705.8719,361.5 L1700.7313,361.5 C1700.325,361.5 1700.1219,361.4531 1699.9656,361.3281 C1699.7469,361.1719 1699.6063,360.9063 1699.6063,360.6563 C1699.6063,360.3594 1699.7625,360.0781 1700.0125,359.9219 C1700.1688,359.8125 1700.2938,359.7969 1700.7313,359.7969 L1702.45,359.7969 L1702.45,353.2813 L1700.7313,353.2813 C1700.3094,353.2813 1700.1219,353.25 1699.9656,353.1406 C1699.7469,352.9688 1699.6063,352.7188 1699.6063,352.4375 C1699.6063,352.1563 1699.7625,351.8594 1700.0125,351.7031 C1700.1688,351.6094 1700.2938,351.5938 1700.7313,351.5938 L1705.8719,351.5938 C1706.325,351.5938 1706.4656,351.625 1706.6375,351.7344 C1706.8719,351.9063 1706.9813,352.1719 1706.9813,352.4375 C1706.9813,352.7344 1706.8406,353.0156 1706.575,353.1719 C1706.45,353.25 1706.2625,353.2813 1705.8719,353.2813 Z "/><text fill="#000000" font-family="sans-serif" font-size="12" font-style="italic" lengthAdjust="spacingAndGlyphs" textLength="51" x="1721.8" y="360.6543">Request</text><line style="stroke: #A80036; stroke-width: 1.5;" x1="1668.5" x2="1795.5" y1="372.5" y2="372.5"/><ellipse cx="1678.5" cy="383.5" fill="none" rx="3" ry="3" style="stroke: #038048; stroke-width: 1.0;"/><text fill="#000000" font-family="sans-serif" font-size="11" lengthAdjust="spacingAndGlyphs" textLength="103" x="1687.5" y="386.7104">session : Session</text><line style="stroke: #A80036; stroke-width: 1.5;" x1="1668.5" x2="1795.5" y1="393.3047" y2="393.3047"/><!--MD5=[06781a53d152b74966533a6255748241]
class AuthMiddleware--><rect fill="#FEFECE" filter="url(#faqp5bga4g3xl)" height="86.4141" id="AuthMiddleware" style="stroke: #A80036; stroke-width: 1.5;" width="184" x="1832" y="328"/><ellipse cx="1870.85" cy="344" fill="#ADD1B2" rx="11" ry="11" style="stroke: #A80036; stroke-width: 1.0;"/><path d="M1873.1938,339.6719 L1873.3656,339.75 C1873.5844,339.4375 1873.7875,339.3438 1874.0844,339.3438 C1874.3813,339.3438 1874.6625,339.4844 1874.8188,339.75 C1874.9125,339.9063 1874.9281,340.0313 1874.9281,340.4688 L1874.9281,341.8906 C1874.9281,342.3125 1874.8969,342.5 1874.7875,342.6563 C1874.6156,342.875 1874.35,343.0156 1874.0844,343.0156 C1873.8656,343.0156 1873.6313,342.9063 1873.4906,342.7656 C1873.35,342.6406 1873.3188,342.5156 1873.2563,342.1094 C1873.1625,341.7031 1872.9906,341.4844 1872.5063,341.2031 C1872.0375,340.9531 1871.4281,340.7969 1870.85,340.7969 C1869.1156,340.7969 1867.8656,342.1094 1867.8656,343.8906 L1867.8656,344.9844 C1867.8656,346.6875 1869.1625,347.7813 1871.2094,347.7813 C1871.975,347.7813 1872.6625,347.6563 1873.0844,347.3906 C1873.2719,347.2969 1873.2719,347.2969 1873.725,346.8125 C1873.9125,346.625 1874.1156,346.5469 1874.3344,346.5469 C1874.8031,346.5469 1875.1938,346.9375 1875.1938,347.3906 C1875.1938,347.7813 1874.8656,348.2344 1874.2875,348.6406 C1873.5375,349.1875 1872.3813,349.4844 1871.1625,349.4844 C1868.2719,349.4844 1866.1625,347.5938 1866.1625,345.0156 L1866.1625,343.8906 C1866.1625,341.1719 1868.1625,339.0938 1870.7875,339.0938 C1871.6625,339.0938 1872.2563,339.2344 1873.1938,339.6719 Z "/><text fill="#000000" font-family="sans-serif" font-size="12" lengthAdjust="spacingAndGlyphs" textLength="99" x="1890.15" y="348.1543">AuthMiddleware</text><line style="stroke: #A80036; stroke-width: 1.5;" x1="1833" x2="2015" y1="360" y2="360"/><rect fill="none" height="6" style="stroke: #C82930; stroke-width: 1.0;" width="6" x="1840" y="368"/><text fill="#000000" font-family="sans-serif" font-size="11" lengthAdjust="spacingAndGlyphs" textLength="158" x="1852" y="374.2104">sessions : Array&lt;Session&gt;</text><line style="stroke: #A80036; stroke-width: 1.5;" x1="1833" x2="2015" y1="380.8047" y2="380.8047"/><ellipse cx="1843" cy="391.8047" fill="#84BE84" rx="3" ry="3" style="stroke: #038048; stroke-width: 1.0;"/><text fill="#000000" font-family="sans-serif" font-size="11" lengthAdjust="spacingAndGlyphs" textLength="135" x="1852" y="395.0151">auth(): express.Handler</text><ellipse cx="1843" cy="404.6094" fill="#84BE84" rx="3" ry="3" style="stroke: #038048; stroke-width: 1.0;"/><text fill="#000000" font-family="sans-serif" font-size="11" lengthAdjust="spacingAndGlyphs" textLength="85" x="1852" y="407.8198">daemon(): void</text><!--MD5=[a83d828be13d333e1fddb3d4d9d97191]
class Handler--><rect fill="#FEFECE" filter="url(#faqp5bga4g3xl)" height="86.4141" id="Handler" style="stroke: #A80036; stroke-width: 1.5;" width="184" x="530" y="66"/><ellipse cx="593.25" cy="82" fill="#ADD1B2" rx="11" ry="11" style="stroke: #A80036; stroke-width: 1.0;"/><path d="M595.5938,77.6719 L595.7656,77.75 C595.9844,77.4375 596.1875,77.3438 596.4844,77.3438 C596.7813,77.3438 597.0625,77.4844 597.2188,77.75 C597.3125,77.9063 597.3281,78.0313 597.3281,78.4688 L597.3281,79.8906 C597.3281,80.3125 597.2969,80.5 597.1875,80.6563 C597.0156,80.875 596.75,81.0156 596.4844,81.0156 C596.2656,81.0156 596.0313,80.9063 595.8906,80.7656 C595.75,80.6406 595.7188,80.5156 595.6563,80.1094 C595.5625,79.7031 595.3906,79.4844 594.9063,79.2031 C594.4375,78.9531 593.8281,78.7969 593.25,78.7969 C591.5156,78.7969 590.2656,80.1094 590.2656,81.8906 L590.2656,82.9844 C590.2656,84.6875 591.5625,85.7813 593.6094,85.7813 C594.375,85.7813 595.0625,85.6563 595.4844,85.3906 C595.6719,85.2969 595.6719,85.2969 596.125,84.8125 C596.3125,84.625 596.5156,84.5469 596.7344,84.5469 C597.2031,84.5469 597.5938,84.9375 597.5938,85.3906 C597.5938,85.7813 597.2656,86.2344 596.6875,86.6406 C595.9375,87.1875 594.7813,87.4844 593.5625,87.4844 C590.6719,87.4844 588.5625,85.5938 588.5625,83.0156 L588.5625,81.8906 C588.5625,79.1719 590.5625,77.0938 593.1875,77.0938 C594.0625,77.0938 594.6563,77.2344 595.5938,77.6719 Z "/><text fill="#000000" font-family="sans-serif" font-size="12" lengthAdjust="spacingAndGlyphs" textLength="49" x="613.75" y="86.1543">Handler</text><line style="stroke: #A80036; stroke-width: 1.5;" x1="531" x2="713" y1="98" y2="98"/><polygon fill="none" points="541,104,545,108,541,112,537,108" style="stroke: #B38D22; stroke-width: 1.0;"/><text fill="#000000" font-family="sans-serif" font-size="11" lengthAdjust="spacingAndGlyphs" textLength="134" x="550" y="112.2104">router : express.Router</text><rect fill="none" height="6" style="stroke: #C82930; stroke-width: 1.0;" width="6" x="538" y="118.8047"/><text fill="#000000" font-family="sans-serif" font-size="11" lengthAdjust="spacingAndGlyphs" textLength="68" x="550" y="125.0151">logger : Log</text><line style="stroke: #A80036; stroke-width: 1.5;" x1="531" x2="713" y1="131.6094" y2="131.6094"/><ellipse cx="541" cy="142.6094" fill="#84BE84" rx="3" ry="3" style="stroke: #038048; stroke-width: 1.0;"/><text fill="#000000" font-family="sans-serif" font-size="11" lengthAdjust="spacingAndGlyphs" textLength="158" x="550" y="145.8198">getRouter(): express.Router</text><!--MD5=[2a4e54f6a4182fe25cccaf89cd34d22c]
class UserHandler--><rect fill="#FEFECE" filter="url(#faqp5bga4g3xl)" height="86.4141" id="UserHandler" style="stroke: #A80036; stroke-width: 1.5;" width="120" x="189" y="328"/><ellipse cx="208.5" cy="344" fill="#ADD1B2" rx="11" ry="11" style="stroke: #A80036; stroke-width: 1.0;"/><path d="M210.8438,339.6719 L211.0156,339.75 C211.2344,339.4375 211.4375,339.3438 211.7344,339.3438 C212.0313,339.3438 212.3125,339.4844 212.4688,339.75 C212.5625,339.9063 212.5781,340.0313 212.5781,340.4688 L212.5781,341.8906 C212.5781,342.3125 212.5469,342.5 212.4375,342.6563 C212.2656,342.875 212,343.0156 211.7344,343.0156 C211.5156,343.0156 211.2813,342.9063 211.1406,342.7656 C211,342.6406 210.9688,342.5156 210.9063,342.1094 C210.8125,341.7031 210.6406,341.4844 210.1563,341.2031 C209.6875,340.9531 209.0781,340.7969 208.5,340.7969 C206.7656,340.7969 205.5156,342.1094 205.5156,343.8906 L205.5156,344.9844 C205.5156,346.6875 206.8125,347.7813 208.8594,347.7813 C209.625,347.7813 210.3125,347.6563 210.7344,347.3906 C210.9219,347.2969 210.9219,347.2969 211.375,346.8125 C211.5625,346.625 211.7656,346.5469 211.9844,346.5469 C212.4531,346.5469 212.8438,346.9375 212.8438,347.3906 C212.8438,347.7813 212.5156,348.2344 211.9375,348.6406 C211.1875,349.1875 210.0313,349.4844 208.8125,349.4844 C205.9219,349.4844 203.8125,347.5938 203.8125,345.0156 L203.8125,343.8906 C203.8125,341.1719 205.8125,339.0938 208.4375,339.0938 C209.3125,339.0938 209.9063,339.2344 210.8438,339.6719 Z "/><text fill="#000000" font-family="sans-serif" font-size="12" lengthAdjust="spacingAndGlyphs" textLength="78" x="223.5" y="348.1543">UserHandler</text><line style="stroke: #A80036; stroke-width: 1.5;" x1="190" x2="308" y1="360" y2="360"/><rect fill="none" height="6" style="stroke: #C82930; stroke-width: 1.0;" width="6" x="197" y="368"/><text fill="#000000" font-family="sans-serif" font-size="11" lengthAdjust="spacingAndGlyphs" textLength="77" x="209" y="374.2104">getUser : any</text><rect fill="none" height="6" style="stroke: #C82930; stroke-width: 1.0;" width="6" x="197" y="380.8047"/><text fill="#000000" font-family="sans-serif" font-size="11" lengthAdjust="spacingAndGlyphs" textLength="77" x="209" y="387.0151">putUser : any</text><rect fill="none" height="6" style="stroke: #C82930; stroke-width: 1.0;" width="6" x="197" y="393.6094"/><text fill="#000000" font-family="sans-serif" font-size="11" lengthAdjust="spacingAndGlyphs" textLength="94" x="209" y="399.8198">deleteUser : any</text><line style="stroke: #A80036; stroke-width: 1.5;" x1="190" x2="308" y1="406.4141" y2="406.4141"/><!--MD5=[e883be3893548ec7c182fa914abede3d]
class SubscriptionHandler--><rect fill="#FEFECE" filter="url(#faqp5bga4g3xl)" height="112.0234" id="SubscriptionHandler" style="stroke: #A80036; stroke-width: 1.5;" width="186" x="344" y="315"/><ellipse cx="371.15" cy="331" fill="#ADD1B2" rx="11" ry="11" style="stroke: #A80036; stroke-width: 1.0;"/><path d="M373.4938,326.6719 L373.6656,326.75 C373.8844,326.4375 374.0875,326.3438 374.3844,326.3438 C374.6813,326.3438 374.9625,326.4844 375.1188,326.75 C375.2125,326.9063 375.2281,327.0313 375.2281,327.4688 L375.2281,328.8906 C375.2281,329.3125 375.1969,329.5 375.0875,329.6563 C374.9156,329.875 374.65,330.0156 374.3844,330.0156 C374.1656,330.0156 373.9313,329.9063 373.7906,329.7656 C373.65,329.6406 373.6188,329.5156 373.5563,329.1094 C373.4625,328.7031 373.2906,328.4844 372.8063,328.2031 C372.3375,327.9531 371.7281,327.7969 371.15,327.7969 C369.4156,327.7969 368.1656,329.1094 368.1656,330.8906 L368.1656,331.9844 C368.1656,333.6875 369.4625,334.7813 371.5094,334.7813 C372.275,334.7813 372.9625,334.6563 373.3844,334.3906 C373.5719,334.2969 373.5719,334.2969 374.025,333.8125 C374.2125,333.625 374.4156,333.5469 374.6344,333.5469 C375.1031,333.5469 375.4938,333.9375 375.4938,334.3906 C375.4938,334.7813 375.1656,335.2344 374.5875,335.6406 C373.8375,336.1875 372.6813,336.4844 371.4625,336.4844 C368.5719,336.4844 366.4625,334.5938 366.4625,332.0156 L366.4625,330.8906 C366.4625,328.1719 368.4625,326.0938 371.0875,326.0938 C371.9625,326.0938 372.5563,326.2344 373.4938,326.6719 Z "/><text fill="#000000" font-family="sans-serif" font-size="12" lengthAdjust="spacingAndGlyphs" textLength="127" x="387.85" y="335.1543">SubscriptionHandler</text><line style="stroke: #A80036; stroke-width: 1.5;" x1="345" x2="529" y1="347" y2="347"/><rect fill="none" height="6" style="stroke: #C82930; stroke-width: 1.0;" width="6" x="352" y="355"/><text fill="#000000" font-family="sans-serif" font-size="11" lengthAdjust="spacingAndGlyphs" textLength="71" x="364" y="361.2104">getApp : any</text><rect fill="none" height="6" style="stroke: #C82930; stroke-width: 1.0;" width="6" x="352" y="367.8047"/><text fill="#000000" font-family="sans-serif" font-size="11" lengthAdjust="spacingAndGlyphs" textLength="128" x="364" y="374.0151">getSubscriptions : any</text><rect fill="none" height="6" style="stroke: #C82930; stroke-width: 1.0;" width="6" x="352" y="380.6094"/><text fill="#000000" font-family="sans-serif" font-size="11" lengthAdjust="spacingAndGlyphs" textLength="138" x="364" y="386.8198">deleteSubscription : any</text><rect fill="none" height="6" style="stroke: #C82930; stroke-width: 1.0;" width="6" x="352" y="393.4141"/><text fill="#000000" font-family="sans-serif" font-size="11" lengthAdjust="spacingAndGlyphs" textLength="153" x="364" y="399.6245">getSubscribeRequest : any</text><rect fill="none" height="6" style="stroke: #C82930; stroke-width: 1.0;" width="6" x="352" y="406.2188"/><text fill="#000000" font-family="sans-serif" font-size="11" lengthAdjust="spacingAndGlyphs" textLength="160" x="364" y="412.4292">postSubscribeRequest : any</text><line style="stroke: #A80036; stroke-width: 1.5;" x1="345" x2="529" y1="419.0234" y2="419.0234"/><!--MD5=[e9a5215718d2e517dd8cfaf5212ed360]
class SPHandler--><rect fill="#FEFECE" filter="url(#faqp5bga4g3xl)" height="112.0234" id="SPHandler" style="stroke: #A80036; stroke-width: 1.5;" width="156" x="565" y="315"/><ellipse cx="606.55" cy="331" fill="#ADD1B2" rx="11" ry="11" style="stroke: #A80036; stroke-width: 1.0;"/><path d="M608.8938,326.6719 L609.0656,326.75 C609.2844,326.4375 609.4875,326.3438 609.7844,326.3438 C610.0813,326.3438 610.3625,326.4844 610.5188,326.75 C610.6125,326.9063 610.6281,327.0313 610.6281,327.4688 L610.6281,328.8906 C610.6281,329.3125 610.5969,329.5 610.4875,329.6563 C610.3156,329.875 610.05,330.0156 609.7844,330.0156 C609.5656,330.0156 609.3313,329.9063 609.1906,329.7656 C609.05,329.6406 609.0188,329.5156 608.9563,329.1094 C608.8625,328.7031 608.6906,328.4844 608.2063,328.2031 C607.7375,327.9531 607.1281,327.7969 606.55,327.7969 C604.8156,327.7969 603.5656,329.1094 603.5656,330.8906 L603.5656,331.9844 C603.5656,333.6875 604.8625,334.7813 606.9094,334.7813 C607.675,334.7813 608.3625,334.6563 608.7844,334.3906 C608.9719,334.2969 608.9719,334.2969 609.425,333.8125 C609.6125,333.625 609.8156,333.5469 610.0344,333.5469 C610.5031,333.5469 610.8938,333.9375 610.8938,334.3906 C610.8938,334.7813 610.5656,335.2344 609.9875,335.6406 C609.2375,336.1875 608.0813,336.4844 606.8625,336.4844 C603.9719,336.4844 601.8625,334.5938 601.8625,332.0156 L601.8625,330.8906 C601.8625,328.1719 603.8625,326.0938 606.4875,326.0938 C607.3625,326.0938 607.9563,326.2344 608.8938,326.6719 Z "/><text fill="#000000" font-family="sans-serif" font-size="12" lengthAdjust="spacingAndGlyphs" textLength="65" x="626.45" y="335.1543">SPHandler</text><line style="stroke: #A80036; stroke-width: 1.5;" x1="566" x2="720" y1="347" y2="347"/><rect fill="none" height="6" style="stroke: #C82930; stroke-width: 1.0;" width="6" x="573" y="355"/><text fill="#000000" font-family="sans-serif" font-size="11" lengthAdjust="spacingAndGlyphs" textLength="78" x="585" y="361.2104">postApp : any</text><rect fill="none" height="6" style="stroke: #C82930; stroke-width: 1.0;" width="6" x="573" y="367.8047"/><text fill="#000000" font-family="sans-serif" font-size="11" lengthAdjust="spacingAndGlyphs" textLength="71" x="585" y="374.0151">putApp : any</text><rect fill="none" height="6" style="stroke: #C82930; stroke-width: 1.0;" width="6" x="573" y="380.6094"/><text fill="#000000" font-family="sans-serif" font-size="11" lengthAdjust="spacingAndGlyphs" textLength="120" x="585" y="386.8198">postNotification : any</text><rect fill="none" height="6" style="stroke: #C82930; stroke-width: 1.0;" width="6" x="573" y="393.4141"/><text fill="#000000" font-family="sans-serif" font-size="11" lengthAdjust="spacingAndGlyphs" textLength="113" x="585" y="399.6245">putNotification : any</text><rect fill="none" height="6" style="stroke: #C82930; stroke-width: 1.0;" width="6" x="573" y="406.2188"/><text fill="#000000" font-family="sans-serif" font-size="11" lengthAdjust="spacingAndGlyphs" textLength="130" x="585" y="412.4292">deleteNotification : any</text><line style="stroke: #A80036; stroke-width: 1.5;" x1="566" x2="720" y1="419.0234" y2="419.0234"/><!--MD5=[fc77a0a9f533582e2a31043d1a44d081]
class NotificationHandler--><rect fill="#FEFECE" filter="url(#faqp5bga4g3xl)" height="99.2188" id="NotificationHandler" style="stroke: #A80036; stroke-width: 1.5;" width="214" x="756" y="321.5"/><ellipse cx="798.9" cy="337.5" fill="#ADD1B2" rx="11" ry="11" style="stroke: #A80036; stroke-width: 1.0;"/><path d="M801.2438,333.1719 L801.4156,333.25 C801.6344,332.9375 801.8375,332.8438 802.1344,332.8438 C802.4313,332.8438 802.7125,332.9844 802.8688,333.25 C802.9625,333.4063 802.9781,333.5313 802.9781,333.9688 L802.9781,335.3906 C802.9781,335.8125 802.9469,336 802.8375,336.1563 C802.6656,336.375 802.4,336.5156 802.1344,336.5156 C801.9156,336.5156 801.6813,336.4063 801.5406,336.2656 C801.4,336.1406 801.3688,336.0156 801.3063,335.6094 C801.2125,335.2031 801.0406,334.9844 800.5563,334.7031 C800.0875,334.4531 799.4781,334.2969 798.9,334.2969 C797.1656,334.2969 795.9156,335.6094 795.9156,337.3906 L795.9156,338.4844 C795.9156,340.1875 797.2125,341.2813 799.2594,341.2813 C800.025,341.2813 800.7125,341.1563 801.1344,340.8906 C801.3219,340.7969 801.3219,340.7969 801.775,340.3125 C801.9625,340.125 802.1656,340.0469 802.3844,340.0469 C802.8531,340.0469 803.2438,340.4375 803.2438,340.8906 C803.2438,341.2813 802.9156,341.7344 802.3375,342.1406 C801.5875,342.6875 800.4313,342.9844 799.2125,342.9844 C796.3219,342.9844 794.2125,341.0938 794.2125,338.5156 L794.2125,337.3906 C794.2125,334.6719 796.2125,332.5938 798.8375,332.5938 C799.7125,332.5938 800.3063,332.7344 801.2438,333.1719 Z "/><text fill="#000000" font-family="sans-serif" font-size="12" lengthAdjust="spacingAndGlyphs" textLength="120" x="819.1" y="341.6543">NotificationHandler</text><line style="stroke: #A80036; stroke-width: 1.5;" x1="757" x2="969" y1="353.5" y2="353.5"/><rect fill="none" height="6" style="stroke: #C82930; stroke-width: 1.0;" width="6" x="764" y="361.5"/><text fill="#000000" font-family="sans-serif" font-size="11" lengthAdjust="spacingAndGlyphs" textLength="120" x="776" y="367.7104">getNotifications : any</text><rect fill="none" height="6" style="stroke: #C82930; stroke-width: 1.0;" width="6" x="764" y="374.3047"/><text fill="#000000" font-family="sans-serif" font-size="11" lengthAdjust="spacingAndGlyphs" textLength="174" x="776" y="380.5151">markNotificationsAsDone : any</text><rect fill="none" height="6" style="stroke: #C82930; stroke-width: 1.0;" width="6" x="764" y="387.1094"/><text fill="#000000" font-family="sans-serif" font-size="11" lengthAdjust="spacingAndGlyphs" textLength="188" x="776" y="393.3198">markNotificationsAsUndone : any</text><rect fill="none" height="6" style="stroke: #C82930; stroke-width: 1.0;" width="6" x="764" y="399.9141"/><text fill="#000000" font-family="sans-serif" font-size="11" lengthAdjust="spacingAndGlyphs" textLength="137" x="776" y="406.1245">deleteNotifications : any</text><line style="stroke: #A80036; stroke-width: 1.5;" x1="757" x2="969" y1="412.7188" y2="412.7188"/><!--MD5=[f14c542ced4965609e0be3c0b87da731]
class GeneralHandler--><rect fill="#FEFECE" filter="url(#faqp5bga4g3xl)" height="99.2188" id="GeneralHandler" style="stroke: #A80036; stroke-width: 1.5;" width="148" x="6" y="321.5"/><ellipse cx="29.1" cy="337.5" fill="#ADD1B2" rx="11" ry="11" style="stroke: #A80036; stroke-width: 1.0;"/><path d="M31.4438,333.1719 L31.6156,333.25 C31.8344,332.9375 32.0375,332.8438 32.3344,332.8438 C32.6313,332.8438 32.9125,332.9844 33.0688,333.25 C33.1625,333.4063 33.1781,333.5313 33.1781,333.9688 L33.1781,335.3906 C33.1781,335.8125 33.1469,336 33.0375,336.1563 C32.8656,336.375 32.6,336.5156 32.3344,336.5156 C32.1156,336.5156 31.8813,336.4063 31.7406,336.2656 C31.6,336.1406 31.5688,336.0156 31.5063,335.6094 C31.4125,335.2031 31.2406,334.9844 30.7563,334.7031 C30.2875,334.4531 29.6781,334.2969 29.1,334.2969 C27.3656,334.2969 26.1156,335.6094 26.1156,337.3906 L26.1156,338.4844 C26.1156,340.1875 27.4125,341.2813 29.4594,341.2813 C30.225,341.2813 30.9125,341.1563 31.3344,340.8906 C31.5219,340.7969 31.5219,340.7969 31.975,340.3125 C32.1625,340.125 32.3656,340.0469 32.5844,340.0469 C33.0531,340.0469 33.4438,340.4375 33.4438,340.8906 C33.4438,341.2813 33.1156,341.7344 32.5375,342.1406 C31.7875,342.6875 30.6313,342.9844 29.4125,342.9844 C26.5219,342.9844 24.4125,341.0938 24.4125,338.5156 L24.4125,337.3906 C24.4125,334.6719 26.4125,332.5938 29.0375,332.5938 C29.9125,332.5938 30.5063,332.7344 31.4438,333.1719 Z "/><text fill="#000000" font-family="sans-serif" font-size="12" lengthAdjust="spacingAndGlyphs" textLength="98" x="44.9" y="341.6543">GeneralHandler</text><line style="stroke: #A80036; stroke-width: 1.5;" x1="7" x2="153" y1="353.5" y2="353.5"/><rect fill="none" height="6" style="stroke: #C82930; stroke-width: 1.0;" width="6" x="14" y="361.5"/><text fill="#000000" font-family="sans-serif" font-size="11" lengthAdjust="spacingAndGlyphs" textLength="56" x="26" y="367.7104">ping : any</text><rect fill="none" height="6" style="stroke: #C82930; stroke-width: 1.0;" width="6" x="14" y="374.3047"/><text fill="#000000" font-family="sans-serif" font-size="11" lengthAdjust="spacingAndGlyphs" textLength="59" x="26" y="380.5151">login : any</text><rect fill="none" height="6" style="stroke: #C82930; stroke-width: 1.0;" width="6" x="14" y="387.1094"/><text fill="#000000" font-family="sans-serif" font-size="11" lengthAdjust="spacingAndGlyphs" textLength="77" x="26" y="393.3198">register : any</text><rect fill="none" height="6" style="stroke: #C82930; stroke-width: 1.0;" width="6" x="14" y="399.9141"/><text fill="#000000" font-family="sans-serif" font-size="11" lengthAdjust="spacingAndGlyphs" textLength="122" x="26" y="406.1245">forgetPassword : any</text><line style="stroke: #A80036; stroke-width: 1.5;" x1="7" x2="153" y1="412.7188" y2="412.7188"/><!--MD5=[f9d9777b41f203871db378981f257aab]
class HopperApp--><rect fill="#FEFECE" filter="url(#faqp5bga4g3xl)" height="201.6563" id="HopperApp" style="stroke: #A80036; stroke-width: 1.5;" width="267" x="749.5" y="8"/><ellipse cx="843.75" cy="24" fill="#ADD1B2" rx="11" ry="11" style="stroke: #A80036; stroke-width: 1.0;"/><path d="M846.0938,19.6719 L846.2656,19.75 C846.4844,19.4375 846.6875,19.3438 846.9844,19.3438 C847.2813,19.3438 847.5625,19.4844 847.7188,19.75 C847.8125,19.9063 847.8281,20.0313 847.8281,20.4688 L847.8281,21.8906 C847.8281,22.3125 847.7969,22.5 847.6875,22.6563 C847.5156,22.875 847.25,23.0156 846.9844,23.0156 C846.7656,23.0156 846.5313,22.9063 846.3906,22.7656 C846.25,22.6406 846.2188,22.5156 846.1563,22.1094 C846.0625,21.7031 845.8906,21.4844 845.4063,21.2031 C844.9375,20.9531 844.3281,20.7969 843.75,20.7969 C842.0156,20.7969 840.7656,22.1094 840.7656,23.8906 L840.7656,24.9844 C840.7656,26.6875 842.0625,27.7813 844.1094,27.7813 C844.875,27.7813 845.5625,27.6563 845.9844,27.3906 C846.1719,27.2969 846.1719,27.2969 846.625,26.8125 C846.8125,26.625 847.0156,26.5469 847.2344,26.5469 C847.7031,26.5469 848.0938,26.9375 848.0938,27.3906 C848.0938,27.7813 847.7656,28.2344 847.1875,28.6406 C846.4375,29.1875 845.2813,29.4844 844.0625,29.4844 C841.1719,29.4844 839.0625,27.5938 839.0625,25.0156 L839.0625,23.8906 C839.0625,21.1719 841.0625,19.0938 843.6875,19.0938 C844.5625,19.0938 845.1563,19.2344 846.0938,19.6719 Z "/><text fill="#000000" font-family="sans-serif" font-size="12" lengthAdjust="spacingAndGlyphs" textLength="70" x="864.25" y="28.1543">HopperApp</text><line style="stroke: #A80036; stroke-width: 1.5;" x1="750.5" x2="1015.5" y1="40" y2="40"/><rect fill="none" height="6" style="stroke: #C82930; stroke-width: 1.0;" width="6" x="757.5" y="48"/><text fill="#000000" font-family="sans-serif" font-size="11" lengthAdjust="spacingAndGlyphs" textLength="160" x="769.5" y="54.2104">server : express.Application</text><rect fill="none" height="6" style="stroke: #C82930; stroke-width: 1.0;" width="6" x="757.5" y="60.8047"/><text fill="#000000" font-family="sans-serif" font-size="11" lengthAdjust="spacingAndGlyphs" textLength="188" x="769.5" y="67.0151">generalHandler : GeneralHandler</text><rect fill="none" height="6" style="stroke: #C82930; stroke-width: 1.0;" width="6" x="757.5" y="73.6094"/><text fill="#000000" font-family="sans-serif" font-size="11" lengthAdjust="spacingAndGlyphs" textLength="129" x="769.5" y="79.8198">spHandler : SPHandler</text><rect fill="none" height="6" style="stroke: #C82930; stroke-width: 1.0;" width="6" x="757.5" y="86.4141"/><text fill="#000000" font-family="sans-serif" font-size="11" lengthAdjust="spacingAndGlyphs" textLength="153" x="769.5" y="92.6245">userHandler : UserHandler</text><rect fill="none" height="6" style="stroke: #C82930; stroke-width: 1.0;" width="6" x="757.5" y="99.2188"/><text fill="#000000" font-family="sans-serif" font-size="11" lengthAdjust="spacingAndGlyphs" textLength="225" x="769.5" y="105.4292">notificationHandler : NotificationHandler</text><rect fill="none" height="6" style="stroke: #C82930; stroke-width: 1.0;" width="6" x="757.5" y="112.0234"/><text fill="#000000" font-family="sans-serif" font-size="11" lengthAdjust="spacingAndGlyphs" textLength="241" x="769.5" y="118.2339">subscriptionHandler : SubscriptionHandler</text><rect fill="none" height="6" style="stroke: #C82930; stroke-width: 1.0;" width="6" x="757.5" y="124.8281"/><text fill="#000000" font-family="sans-serif" font-size="11" lengthAdjust="spacingAndGlyphs" textLength="190" x="769.5" y="131.0386">authMiddleware : AuthMiddleware</text><rect fill="none" height="6" style="stroke: #C82930; stroke-width: 1.0;" width="6" x="757.5" y="137.6328"/><text fill="#000000" font-family="sans-serif" font-size="11" lengthAdjust="spacingAndGlyphs" textLength="49" x="769.5" y="143.8433">log : Log</text><rect fill="none" height="6" style="stroke: #C82930; stroke-width: 1.0;" width="6" x="757.5" y="150.4375"/><text fill="#000000" font-family="sans-serif" font-size="11" lengthAdjust="spacingAndGlyphs" textLength="156" x="769.5" y="156.6479">configHolder : ConfigHolder</text><line style="stroke: #A80036; stroke-width: 1.5;" x1="750.5" x2="1015.5" y1="163.2422" y2="163.2422"/><rect fill="#F24D5C" height="6" style="stroke: #C82930; stroke-width: 1.0;" width="6" x="757.5" y="171.2422"/><text fill="#000000" font-family="sans-serif" font-size="11" lengthAdjust="spacingAndGlyphs" textLength="186" x="769.5" y="177.4526">loadConfig(): Promise&lt;boolean&gt;</text><rect fill="#F24D5C" height="6" style="stroke: #C82930; stroke-width: 1.0;" width="6" x="757.5" y="184.0469"/><text fill="#000000" font-family="sans-serif" font-size="11" lengthAdjust="spacingAndGlyphs" textLength="143" x="769.5" y="190.2573">init(): Promise&lt;boolean&gt;</text><ellipse cx="760.5" cy="199.8516" fill="#84BE84" rx="3" ry="3" style="stroke: #038048; stroke-width: 1.0;"/><text fill="#000000" font-family="sans-serif" font-size="11" lengthAdjust="spacingAndGlyphs" textLength="131" x="769.5" y="203.062">start(): Promise&lt;void&gt;</text><!--MD5=[99f32fa4e73f6681c1a0ac5117bd3ce1]
class Array--><rect fill="#FEFECE" filter="url(#faqp5bga4g3xl)" height="48" id="Array" style="stroke: #A80036; stroke-width: 1.5;" width="64" x="1935" y="583"/><ellipse cx="1950" cy="599" fill="#ADD1B2" rx="11" ry="11" style="stroke: #A80036; stroke-width: 1.0;"/><path d="M1952.3438,594.6719 L1952.5156,594.75 C1952.7344,594.4375 1952.9375,594.3438 1953.2344,594.3438 C1953.5313,594.3438 1953.8125,594.4844 1953.9688,594.75 C1954.0625,594.9063 1954.0781,595.0313 1954.0781,595.4688 L1954.0781,596.8906 C1954.0781,597.3125 1954.0469,597.5 1953.9375,597.6563 C1953.7656,597.875 1953.5,598.0156 1953.2344,598.0156 C1953.0156,598.0156 1952.7813,597.9063 1952.6406,597.7656 C1952.5,597.6406 1952.4688,597.5156 1952.4063,597.1094 C1952.3125,596.7031 1952.1406,596.4844 1951.6563,596.2031 C1951.1875,595.9531 1950.5781,595.7969 1950,595.7969 C1948.2656,595.7969 1947.0156,597.1094 1947.0156,598.8906 L1947.0156,599.9844 C1947.0156,601.6875 1948.3125,602.7813 1950.3594,602.7813 C1951.125,602.7813 1951.8125,602.6563 1952.2344,602.3906 C1952.4219,602.2969 1952.4219,602.2969 1952.875,601.8125 C1953.0625,601.625 1953.2656,601.5469 1953.4844,601.5469 C1953.9531,601.5469 1954.3438,601.9375 1954.3438,602.3906 C1954.3438,602.7813 1954.0156,603.2344 1953.4375,603.6406 C1952.6875,604.1875 1951.5313,604.4844 1950.3125,604.4844 C1947.4219,604.4844 1945.3125,602.5938 1945.3125,600.0156 L1945.3125,598.8906 C1945.3125,596.1719 1947.3125,594.0938 1949.9375,594.0938 C1950.8125,594.0938 1951.4063,594.2344 1952.3438,594.6719 Z "/><text fill="#000000" font-family="sans-serif" font-size="12" lengthAdjust="spacingAndGlyphs" textLength="32" x="1964" y="603.1543">Array</text><line style="stroke: #A80036; stroke-width: 1.5;" x1="1936" x2="1998" y1="615" y2="615"/><line style="stroke: #A80036; stroke-width: 1.5;" x1="1936" x2="1998" y1="623" y2="623"/><!--MD5=[ccc04b8595734d76aa88ba0088105582]
link Subscription to App--><path d="M2334.17,656.641 C2348.17,680.809 2365.37,710.506 2380.9,737.309 " fill="none" id="Subscription-&gt;App" style="stroke: #A80036; stroke-width: 1.0;"/><polygon fill="#A80036" points="2383.57,741.93,2382.5229,732.137,2381.065,737.6027,2375.5993,736.1449,2383.57,741.93" style="stroke: #A80036; stroke-width: 1.0;"/><!--MD5=[c710ea31b188414d8c153051088322c1]
link Notification to Subscription--><path d="M2211.69,472.255 C2231.37,500.164 2251.97,529.37 2268.87,553.345 " fill="none" id="Notification-&gt;Subscription" style="stroke: #A80036; stroke-width: 1.0;"/><polygon fill="#A80036" points="2271.77,557.452,2269.8518,547.7917,2268.8883,553.3659,2263.3141,552.4024,2271.77,557.452" style="stroke: #A80036; stroke-width: 1.0;"/><!--MD5=[d59cd7c8d8c1c44626d6af0265ee5b9b]
link Notification to Array--><path d="M2066.45,472.255 C2037.56,511.112 2006.79,552.484 1987.26,578.75 " fill="none" id="Notification-&gt;Array" style="stroke: #A80036; stroke-width: 1.0;"/><polygon fill="#A80036" points="1984.23,582.833,1992.8179,578.0114,1987.2199,578.8255,1986.4058,573.2275,1984.23,582.833" style="stroke: #A80036; stroke-width: 1.0;"/><!--MD5=[d0259a683ce40675d0aeae665cbb280d]
link Notification to Action--><path d="M2131.57,472.255 C2128.98,499.818 2126.27,528.646 2124.03,552.451 " fill="none" id="Notification-&gt;Action" style="stroke: #A80036; stroke-width: 1.0;"/><polygon fill="#A80036" points="2123.56,557.452,2128.3869,548.8671,2124.0292,552.4741,2120.4222,548.1164,2123.56,557.452" style="stroke: #A80036; stroke-width: 1.0;"/><!--MD5=[57f68ba381a209655d14b99452ce3f1a]
link Request to Session--><path d="M1735.67,401.636 C1739.55,432.953 1745.84,483.671 1751.18,526.745 " fill="none" id="Request-&gt;Session" style="stroke: #A80036; stroke-width: 1.0;"/><polygon fill="#A80036" points="1751.82,531.958,1754.6835,522.5346,1751.2054,526.9959,1746.7441,523.5179,1751.82,531.958" style="stroke: #A80036; stroke-width: 1.0;"/><!--MD5=[ef39ac4fb6186b62e0565e19bf4d4de8]
link AuthMiddleware to Array--><path d="M1931.74,414.105 C1940.41,461.328 1954.25,536.633 1961.75,577.45 " fill="none" id="AuthMiddleware-&gt;Array" style="stroke: #A80036; stroke-width: 1.0;"/><polygon fill="#A80036" points="1962.72,582.733,1965.0252,573.1577,1961.8151,577.8156,1957.1573,574.6055,1962.72,582.733" style="stroke: #A80036; stroke-width: 1.0;"/><!--MD5=[d5949337599ab3606d0379306eb67f89]
link AuthMiddleware to Session--><path d="M1894.67,414.105 C1872.74,445.59 1842.11,489.558 1815.71,527.465 " fill="none" id="AuthMiddleware-&gt;Session" style="stroke: #A80036; stroke-width: 1.0;"/><polygon fill="#A80036" points="1812.84,531.584,1821.2686,526.489,1815.6996,527.4825,1814.7061,521.9136,1812.84,531.584" style="stroke: #A80036; stroke-width: 1.0;"/><!--MD5=[21bcb7a78984d1f6e2d5a329649e2b0b]
link Handler to express.Router--><path d="M658.698,152.216 C678.494,172.511 704.479,195.516 732,210 C835.031,264.223 894.28,199.583 987,270 C1010.72,288.012 1025.54,319.347 1033.74,342.15 " fill="none" id="Handler-&gt;express.Router" style="stroke: #A80036; stroke-width: 1.0;"/><polygon fill="#A80036" points="1035.39,346.878,1036.2068,337.0631,1033.7452,342.1563,1028.652,339.6947,1035.39,346.878" style="stroke: #A80036; stroke-width: 1.0;"/><!--MD5=[366fb64c45e37667a03be65fba640dbc]
link Handler to Log--><path d="M656.841,152.245 C676.605,173.206 703.126,196.806 732,210 C935.57,303.022 1027.81,178.341 1232,270 C1253.77,279.774 1274.36,295.258 1291.85,311.148 " fill="none" id="Handler-&gt;Log" style="stroke: #A80036; stroke-width: 1.0;"/><polygon fill="#A80036" points="1295.77,314.758,1291.8792,305.7102,1292.0995,311.3628,1286.4469,311.5831,1295.77,314.758" style="stroke: #A80036; stroke-width: 1.0;"/><!--MD5=[09d570ff4da29279ee462f97d48974ab]
link HopperApp to express.Application--><path d="M1016.67,199.979 C1044.3,221.374 1072.21,245.234 1096,270 C1117.14,292.013 1136.43,321.092 1149.2,342.215 " fill="none" id="HopperApp-&gt;express.Application" style="stroke: #A80036; stroke-width: 1.0;"/><polygon fill="#A80036" points="1151.83,346.596,1150.6319,336.8203,1149.2586,342.3079,1143.771,340.9346,1151.83,346.596" style="stroke: #A80036; stroke-width: 1.0;"/><!--MD5=[9ab9da89b1babb9c85baf5cb1a03a2b4]
link HopperApp to GeneralHandler--><path d="M749.243,202.63 C743.189,205.337 737.095,207.814 731,210 C495.379,294.495 394.216,156.724 171,270 C149.399,280.962 130.426,299.336 115.472,317.365 " fill="none" id="HopperApp-&gt;GeneralHandler" style="stroke: #A80036; stroke-width: 1.0;"/><polygon fill="#A80036" points="112.149,321.446,120.9336,316.9928,115.3062,317.5688,114.7302,311.9414,112.149,321.446" style="stroke: #A80036; stroke-width: 1.0;"/><!--MD5=[87f9cd8c0f33edbb91d4ac6f2f924ad6]
link HopperApp to SPHandler--><path d="M790.553,210.151 C759.086,244.24 724.946,281.225 697.439,311.025 " fill="none" id="HopperApp-&gt;SPHandler" style="stroke: #A80036; stroke-width: 1.0;"/><polygon fill="#A80036" points="693.775,314.994,702.8186,311.0936,697.1663,311.3199,696.94,305.6675,693.775,314.994" style="stroke: #A80036; stroke-width: 1.0;"/><!--MD5=[2539d4ab58cea71dade55006491d72dc]
link HopperApp to UserHandler--><path d="M749.128,202.319 C743.106,205.112 737.05,207.692 731,210 C560.99,274.866 482.922,177.878 326,270 C304.48,282.633 286.868,303.817 273.946,323.444 " fill="none" id="HopperApp-&gt;UserHandler" style="stroke: #A80036; stroke-width: 1.0;"/><polygon fill="#A80036" points="271.095,327.866,279.3348,322.471,273.8052,323.6642,272.612,318.1347,271.095,327.866" style="stroke: #A80036; stroke-width: 1.0;"/><!--MD5=[54dfd7ffa2fb787e43402ba2311f050b]
link HopperApp to NotificationHandler--><path d="M875.296,210.151 C872.519,246.257 869.491,285.611 867.136,316.236 " fill="none" id="HopperApp-&gt;NotificationHandler" style="stroke: #A80036; stroke-width: 1.0;"/><polygon fill="#A80036" points="866.734,321.461,871.4113,312.7937,867.1168,316.4757,863.4348,312.1812,866.734,321.461" style="stroke: #A80036; stroke-width: 1.0;"/><!--MD5=[4c3beb9a50c5a668b4572b254b8aceca]
link HopperApp to SubscriptionHandler--><path d="M749.441,200.589 C743.283,203.899 737.12,207.055 731,210 C653.494,247.302 621.366,226.775 547,270 C527.604,281.274 508.697,296.421 492.184,311.512 " fill="none" id="HopperApp-&gt;SubscriptionHandler" style="stroke: #A80036; stroke-width: 1.0;"/><polygon fill="#A80036" points="488.479,314.933,497.8055,311.768,492.1531,311.5417,492.3794,305.8894,488.479,314.933" style="stroke: #A80036; stroke-width: 1.0;"/><!--MD5=[2900fe5f0b00b6f9fe206acceca68566]
link HopperApp to AuthMiddleware--><path d="M1016.73,123.656 C1239.47,147.938 1675.64,202.48 1814,270 C1840.53,282.946 1865.31,304.285 1884.61,323.934 " fill="none" id="HopperApp-&gt;AuthMiddleware" style="stroke: #A80036; stroke-width: 1.0;"/><polygon fill="#A80036" points="1888.4,327.838,1885.0024,318.5937,1884.9178,324.25,1879.2615,324.1653,1888.4,327.838" style="stroke: #A80036; stroke-width: 1.0;"/><!--MD5=[053098867ab942db51a012c4b933c254]
link HopperApp to Log--><path d="M1016.67,160.364 C1083.76,188.315 1164.83,226.266 1232,270 C1250.32,281.925 1268.7,296.699 1285.15,311.197 " fill="none" id="HopperApp-&gt;Log" style="stroke: #A80036; stroke-width: 1.0;"/><polygon fill="#A80036" points="1289.29,314.876,1285.228,305.9038,1285.5556,311.5512,1279.9083,311.8788,1289.29,314.876" style="stroke: #A80036; stroke-width: 1.0;"/><!--MD5=[a731c3c2800836e97c7b43dc516d1a7c]
link HopperApp to ConfigHolder--><path d="M1016.53,126.951 C1137.95,146.916 1318.62,188.31 1456,270 C1468.98,277.719 1481.4,287.622 1492.76,298.184 " fill="none" id="HopperApp-&gt;ConfigHolder" style="stroke: #A80036; stroke-width: 1.0;"/><polygon fill="#A80036" points="1496.57,301.789,1492.7701,292.7027,1492.9337,298.3572,1487.2792,298.5208,1496.57,301.789" style="stroke: #A80036; stroke-width: 1.0;"/><!--MD5=[9e443dc0389c31e83114fc7bb7026a82]
reverse link mongoose.Document to User--><path d="M2351.67,152.6 C2361.72,196.923 2377.51,266.493 2388.51,314.955 " fill="none" id="mongoose.Document&lt;-User" style="stroke: #A80036; stroke-width: 1.0;"/><polygon fill="none" points="2344.84,154.127,2347.24,133.073,2358.49,151.028,2344.84,154.127" style="stroke: #A80036; stroke-width: 1.0;"/><!--MD5=[c48fb9cbd61ccf6a1c0422e7834c451b]
reverse link mongoose.Document to Subscription--><path d="M2334.93,153.208 C2329.94,185.333 2323.55,230.29 2320,270 C2310.88,372.057 2307.68,492.096 2306.58,557.497 " fill="none" id="mongoose.Document&lt;-Subscription" style="stroke: #A80036; stroke-width: 1.0;"/><polygon fill="none" points="2328.05,151.893,2338.1,133.239,2341.87,154.09,2328.05,151.893" style="stroke: #A80036; stroke-width: 1.0;"/><!--MD5=[9b01937925a5f5a05409d71430acef37]
reverse link mongoose.Document to Notification--><path d="M2311.69,149.211 C2286.97,181.187 2250.93,227.798 2218.34,269.962 " fill="none" id="mongoose.Document&lt;-Notification" style="stroke: #A80036; stroke-width: 1.0;"/><polygon fill="none" points="2306.39,144.615,2324.16,133.073,2317.47,153.178,2306.39,144.615" style="stroke: #A80036; stroke-width: 1.0;"/><!--MD5=[ac9644d4c6eea93a514d8be953c3bb29]
reverse link mongoose.Document to App--><path d="M2364.33,150.622 C2375.79,169.673 2390.75,192.07 2407,210 C2435.66,241.632 2463.51,231.526 2482,270 C2556.86,425.763 2494.32,635.224 2452.72,741.695 " fill="none" id="mongoose.Document&lt;-App" style="stroke: #A80036; stroke-width: 1.0;"/><polygon fill="none" points="2358.27,154.124,2354.31,133.309,2370.39,147.107,2358.27,154.124" style="stroke: #A80036; stroke-width: 1.0;"/><!--MD5=[0b306704cc5748c9a9e25467002e0d2d]
reverse link Handler to UserHandler--><path d="M511.548,156.076 C452.726,183.834 381.316,222.925 326,270 C306.643,286.473 289.019,308.549 275.531,327.769 " fill="none" id="Handler&lt;-UserHandler" style="stroke: #A80036; stroke-width: 1.0;"/><polygon fill="none" points="508.676,149.692,529.766,147.648,514.554,162.398,508.676,149.692" style="stroke: #A80036; stroke-width: 1.0;"/><!--MD5=[275737ff6320b19ad903342a136beaef]
reverse link Handler to SubscriptionHandler--><path d="M580.301,168.605 C549.128,212.414 506.798,271.906 476.236,314.858 " fill="none" id="Handler&lt;-SubscriptionHandler" style="stroke: #A80036; stroke-width: 1.0;"/><polygon fill="none" points="574.772,164.3,592.071,152.062,586.179,172.417,574.772,164.3" style="stroke: #A80036; stroke-width: 1.0;"/><!--MD5=[41b14c7b1e47794366ad31fe67f769c6]
reverse link Handler to SPHandler--><path d="M627.018,172.126 C630.526,215.562 635.169,273.046 638.546,314.858 " fill="none" id="Handler&lt;-SPHandler" style="stroke: #A80036; stroke-width: 1.0;"/><polygon fill="none" points="620.03,172.561,625.397,152.062,633.985,171.434,620.03,172.561" style="stroke: #A80036; stroke-width: 1.0;"/><!--MD5=[54fa1b0cd35a6112e25b6549cb87aee2]
reverse link Handler to NotificationHandler--><path d="M674.81,166.973 C717.625,213.163 777.315,277.56 817.912,321.357 " fill="none" id="Handler&lt;-NotificationHandler" style="stroke: #A80036; stroke-width: 1.0;"/><polygon fill="none" points="669.451,171.489,660.989,152.062,679.719,161.972,669.451,171.489" style="stroke: #A80036; stroke-width: 1.0;"/><!--MD5=[753506548ce492df9f5d4057b0002e81]
reverse link Handler to GeneralHandler--><path d="M510.111,133.43 C414.342,157.133 275.749,200.364 171,270 C150.279,283.775 131.116,303.287 115.773,321.424 " fill="none" id="Handler&lt;-GeneralHandler" style="stroke: #A80036; stroke-width: 1.0;"/><polygon fill="none" points="508.486,126.621,529.57,128.737,511.769,140.231,508.486,126.621" style="stroke: #A80036; stroke-width: 1.0;"/><!--MD5=[eaf60812ace8f3cbc14ecd49b4a92e7f]
@startuml
class Log{
  -module : any
  -maxModuleLength : any
  +info(message: string): void
  +warn(message: string): void
  +error(message: string): void
}

class ConfigHolder{
  +dbHost : string
  +dbUser : string
  +dbPassword : string
  +dbName : string
  +dbPort : number
  +startBackend : boolean
  +port : number
}

class User{
  +_id : string
  +email : string
  +password : string
  +firstName : string
  +lastName : string
}

class mongoose.Document{

}

class Subscription{
  +_id : string
  +userId : string
  +accountName : string
  +app : App
}

class SubscribeRequest{
  +id : string
  +callback : string
  +name : string
  +requestedInfos : string[]
  +fromRequestBody(json: any): SubscribeRequest
}

class Session{
  +id : string
  +userId : string
  -expTs : number
  +MAX_AGE : number
  +create(userId: string): Session
  +findById(id: string): Session | undefined
  +deleteExpired(): void
  +deleteAssociated(userId: string): void
}

class Notification{
  +_id : string
  +userId : string
  +heading : string
  +subscription : Subscription
  +timestamp : number
  +imageUrl : string
  +isDone : any
  +isSilent : boolean
  +isArchived : boolean
  +type : string
  +content : string
  +actions : Array<Action>
}

class App{
  +_id : string
  +name : string
  +imageUrl : string
  +isHidden : boolean
  +baseUrl : string
  +manageUrl : string | undefined
  +cert : string
}

class Action{
  +type : string
  +url : string
  +markAsDone : boolean
  +text : string
}

interface Request{
  +session : Session
}

class AuthMiddleware{
  -sessions : Array<Session>
  +auth(): express.Handler
  +daemon(): void
}

class Handler{
  #router : express.Router
  -logger : Log
  +getRouter(): express.Router
}

class UserHandler{
  -getUser : any
  -putUser : any
  -deleteUser : any
}

class SubscriptionHandler{
  -getApp : any
  -getSubscriptions : any
  -deleteSubscription : any
  -getSubscribeRequest : any
  -postSubscribeRequest : any
}

class SPHandler{
  -postApp : any
  -putApp : any
  -postNotification : any
  -putNotification : any
  -deleteNotification : any
}

class NotificationHandler{
  -getNotifications : any
  -markNotificationsAsDone : any
  -markNotificationsAsUndone : any
  -deleteNotifications : any
}

class GeneralHandler{
  -ping : any
  -login : any
  -register : any
  -forgetPassword : any
}

class HopperApp{
  -server : express.Application
  -generalHandler : GeneralHandler
  -spHandler : SPHandler
  -userHandler : UserHandler
  -notificationHandler : NotificationHandler
  -subscriptionHandler : SubscriptionHandler
  -authMiddleware : AuthMiddleware
  -log : Log
  -configHolder : ConfigHolder
  -loadConfig(): Promise<boolean>
  -init(): Promise<boolean>
  +start(): Promise<void>
}

Subscription - -> App
Notification - -> Subscription
Notification - -> Array
Notification - -> Action
Request - -> Session
AuthMiddleware - -> Array
AuthMiddleware - -> Session
Handler - -> express.Router
Handler - -> Log
HopperApp - -> express.Application
HopperApp - -> GeneralHandler
HopperApp - -> SPHandler
HopperApp - -> UserHandler
HopperApp - -> NotificationHandler
HopperApp - -> SubscriptionHandler
HopperApp - -> AuthMiddleware
HopperApp - -> Log
HopperApp - -> ConfigHolder
mongoose.Document <|- - User
mongoose.Document <|- - Subscription
mongoose.Document <|- - Notification
mongoose.Document <|- - App
Handler <|- - UserHandler
Handler <|- - SubscriptionHandler
Handler <|- - SPHandler
Handler <|- - NotificationHandler
Handler <|- - GeneralHandler
@enduml

PlantUML version 1.2019.12(Sun Nov 03 10:24:54 UTC 2019)
(GPL source distribution)
Java Runtime: Java(TM) SE Runtime Environment
JVM: Java HotSpot(TM) 64-Bit Server VM
Java Version: 1.7.0_25-b15
Operating System: Linux
Default Encoding: UTF-8
Language: en
Country: US
--></g></svg>